<svg width="312" height="185" viewBox="0 0 312 185" fill="none" xmlns="http://www.w3.org/2000/svg">
<g opacity="0.1">
<rect width="312" height="185" transform="translate(312 185) rotate(-180)" fill="white"/>
<path fill-rule="evenodd" clip-rule="evenodd" d="M186.029 51.1129C199.016 45.3331 240.306 29.0004 268.61 41.1595C286.019 48.5963 301.278 55.9369 312 61.2643C300.372 64.7819 283.926 69.555 265.208 74.0793C234.92 81.5161 197.606 58.8494 186.035 51.1129L186.029 51.1129Z" fill="#125F31"/>
<path fill-rule="evenodd" clip-rule="evenodd" d="M176.447 73.173C186.313 80.7624 215.867 105.539 214.221 130.518C213.2 145.895 211.61 159.666 210.309 169.371C202.995 162.03 192.899 151.528 182.177 139.363C164.825 119.609 173.217 84.3819 176.447 73.173Z" fill="#125F31"/>
<path fill-rule="evenodd" clip-rule="evenodd" d="M177.753 39.7515C181.78 32.2129 195.45 9.14466 215.355 5.2255C227.665 2.81066 238.776 1.10275 246.664 -4.57764e-05C242.356 5.93243 236.057 14.2741 228.629 23.2718C216.548 37.8456 187.224 39.6044 177.753 39.7571L177.753 39.7515Z" fill="#125F31"/>
<path fill-rule="evenodd" clip-rule="evenodd" d="M234.64 99.2554C242.407 99.408 266.568 100.811 276.498 112.777C282.682 120.163 287.839 127.001 291.413 131.875C284.89 130.971 275.758 129.562 265.662 127.606C249.273 124.439 237.984 105.493 234.64 99.261L234.64 99.2554Z" fill="#125F31"/>
<path fill-rule="evenodd" clip-rule="evenodd" d="M171.624 139.921C175.874 143.642 188.638 155.801 187.049 167.259C186.085 174.294 184.892 180.578 183.986 185C180.865 181.431 176.557 176.353 172.02 170.477C164.706 160.976 169.754 144.943 171.624 139.921Z" fill="#125F31"/>
<path fill-rule="evenodd" clip-rule="evenodd" d="M125.97 51.1129C112.983 45.3331 71.6353 29.0004 43.3894 41.1595C25.9224 48.5963 10.6634 55.9369 -0.000616612 61.2643C11.5696 64.7819 28.073 69.555 46.7335 74.0793C77.0216 81.5161 114.342 58.8494 125.964 51.1129L125.97 51.1129Z" fill="#125F31"/>
<path fill-rule="evenodd" clip-rule="evenodd" d="M135.499 73.173C125.633 80.7624 96.1426 105.539 97.7828 130.518C98.8039 145.895 100.393 159.666 101.695 169.371C109.008 162.03 119.104 151.528 129.826 139.363C147.184 119.609 138.786 84.3819 135.493 73.173L135.499 73.173Z" fill="#125F31"/>
<path fill-rule="evenodd" clip-rule="evenodd" d="M134.191 39.7515C130.221 32.2129 116.551 9.14467 96.589 5.2255C84.3359 2.81066 73.2188 1.10274 65.3372 -5.12687e-05C69.645 5.93242 75.8864 14.2741 83.3722 23.2718C95.453 37.8456 124.771 39.6044 134.191 39.7571L134.191 39.7515Z" fill="#125F31"/>
<path fill-rule="evenodd" clip-rule="evenodd" d="M77.3119 99.2551C69.6027 99.4078 45.4347 100.81 35.4535 112.777C29.327 120.163 24.1641 127 20.5903 131.875C27.055 130.97 36.1874 129.562 46.3409 127.605C62.7294 124.438 74.0189 105.493 77.3055 99.2608L77.3119 99.2551Z" fill="#125F31"/>
<path fill-rule="evenodd" clip-rule="evenodd" d="M140.375 139.921C136.067 143.642 123.361 155.801 124.892 167.259C125.913 174.294 127.1 180.578 128.013 185C131.134 181.431 135.441 176.353 139.921 170.477C147.292 160.976 142.244 144.943 140.375 139.921Z" fill="#125F31"/>
<path fill-rule="evenodd" clip-rule="evenodd" d="M235.431 30.6066C239.911 24.9795 254.825 8.13785 271.616 7.58928C281.935 7.23865 291.24 7.34046 297.762 7.4366C293.282 11.7064 286.817 17.588 279.331 23.922C267.078 34.1242 243.089 31.7094 235.431 30.6066Z" fill="#125F31"/>
<path fill-rule="evenodd" clip-rule="evenodd" d="M76.5671 30.6074C72.087 24.9803 57.1727 8.13865 40.3822 7.59008C30.0564 7.23944 20.7581 7.34125 14.1784 7.43739C18.7159 11.7072 25.1232 17.5888 32.6666 23.9228C44.8622 34.125 68.9089 31.7102 76.5607 30.6074L76.5671 30.6074Z" fill="#125F31"/>
</g>
</svg>
