<svg width="324" height="321" viewBox="0 0 324 321" fill="none" xmlns="http://www.w3.org/2000/svg">
<path fill-rule="evenodd" clip-rule="evenodd" d="M162.016 50C214.407 50.7083 259.192 84.7762 271.039 135.132C290.712 218.847 208.968 291.698 125.998 264.143C43.0269 236.558 23.1029 129.858 90.6727 75.1169C111.226 58.4545 135.334 50.3403 161.857 50H162.012H162.016ZM161.92 53.795C139.829 54.0727 119.837 59.7183 101.455 71.9087C29.4507 119.674 41.4249 227.485 122.26 258.775C201.959 289.632 284.994 220.854 267.867 138.559C257.463 88.6927 213.527 54.4442 161.92 53.795Z" fill="#125F31"/>
<path fill-rule="evenodd" clip-rule="evenodd" d="M145.36 140.562C138.164 144.11 115.283 154.138 99.5993 146.673C89.9521 142.107 81.4966 137.6 75.5554 134.329C81.9987 132.17 91.112 129.239 101.484 126.462C118.268 121.896 138.945 135.812 145.357 140.562H145.36Z" fill="#125F31"/>
<path fill-rule="evenodd" clip-rule="evenodd" d="M150.671 127.019C145.203 122.359 128.826 107.148 129.739 91.812C130.305 82.3714 131.185 73.917 131.907 67.9589C135.959 72.4656 141.554 78.9133 147.495 86.3817C157.11 98.5096 152.46 120.137 150.671 127.019Z" fill="#125F31"/>
<path fill-rule="evenodd" clip-rule="evenodd" d="M149.946 147.538C147.714 152.166 140.139 166.329 129.109 168.735C122.287 170.217 116.131 171.266 111.76 171.943C114.147 168.301 117.637 163.18 121.753 157.655C128.448 148.708 144.698 147.628 149.946 147.534V147.538Z" fill="#125F31"/>
<path fill-rule="evenodd" clip-rule="evenodd" d="M118.423 111.006C114.119 110.912 100.731 110.051 95.2279 102.704C91.8012 98.1693 88.9438 93.9716 86.9634 90.9787C90.5776 91.5342 95.6381 92.3988 101.233 93.6001C110.314 95.5444 116.57 107.176 118.423 111.002V111.006Z" fill="#125F31"/>
<path fill-rule="evenodd" clip-rule="evenodd" d="M153.342 86.0391C150.987 83.7545 143.914 76.2895 144.795 69.2551C145.329 64.9359 145.99 61.0784 146.492 58.3632C148.222 60.5541 150.609 63.672 153.123 67.2795C157.176 73.1126 154.379 82.9559 153.342 86.0391Z" fill="#125F31"/>
<path fill-rule="evenodd" clip-rule="evenodd" d="M187.866 189.326C195.158 191.024 198.536 190.92 205.326 191.107C220.727 191.569 223.807 188.822 239.049 196.322C243.069 198.298 251.387 204.488 254.778 208.728C260.009 215.766 260.84 210.408 258.251 210.825C256.713 211.072 260.861 209.158 260.61 207.648C258.41 200.058 248.321 194.687 241.595 191.388C234.745 188.024 229.967 186.514 225.6 185.896C234.083 182.871 239.869 181.917 248.165 181.392C252.543 181.358 245.952 181.483 250.729 181.174L255.252 181.094C260.352 181.174 263.124 181.826 267.577 183.048C271.244 184.055 269.755 182.569 270.289 181.149C271.152 177.66 273.065 177.011 262.622 176.087C249.403 174.92 233.896 176.736 220.539 181.858C209.477 186.083 194.391 187.382 183.361 182.691C177.423 180.191 173.65 175.222 170.757 164.824C166.924 150.97 167.896 146.772 177.798 135.787C188.956 123.381 204.042 119.433 220.698 118.044C229.433 117.336 236.704 117.906 243.932 119.447C248.802 120.496 256.257 123.364 261.271 125.263C266.289 127.162 265.264 126.714 266.236 124.923C267.021 123.502 267.06 120.989 260.684 118.621C248.53 114.104 233.047 111.5 220.224 112.548C212.586 113.166 205.672 114.308 199.483 116.159C200.081 115.079 200.707 113.937 201.337 112.673C207.274 101.132 214.598 76.4178 212.713 64.0746C212.494 62.5643 211.833 61.7622 210.386 61.2657C208.876 60.8629 207.37 61.7587 206.959 63.2413C206.804 63.9184 207.256 67.7307 206.772 73.4249C206.121 81.0322 204.007 90.4588 201.085 99.0661C193.981 119.833 191.343 115.944 178.018 127.7C173.965 131.311 170.319 135.662 167.019 140.908C166.549 136.342 166.202 117.61 165.92 98.6633C165.792 89.4068 165.768 60.7622 165.768 52.8911C165.768 51.4918 163.999 50.1551 162.397 50.1273C160.795 50.1586 159.013 51.4085 158.91 52.8043C158.38 60.0678 158.974 89.4068 158.847 98.6633C158.564 117.61 158.217 136.339 157.779 140.908C154.479 135.662 150.833 131.311 146.749 127.7C133.456 115.944 130.782 119.833 123.681 99.0661C120.756 90.4588 118.825 81.0148 117.991 73.4249C117.347 67.5536 117.839 63.6093 117.743 62.9219C117.436 60.6998 115.883 60.8664 114.377 61.2692C112.93 61.7622 112.273 62.5642 112.05 64.0781C110.197 76.4213 117.489 101.135 123.426 112.677C124.056 113.94 124.682 115.083 125.311 116.163C119.087 114.312 112.205 113.17 104.538 112.552C91.7155 111.503 78.1004 112.805 66.1651 117.86C58.4946 121.107 56.15 124.36 56.9351 125.78C57.9076 127.568 57.6424 127.836 63.4951 125.266C68.4036 123.114 76.0033 120.145 80.8765 119.096C88.1367 117.555 95.3651 117.336 104.072 118.048C120.76 119.437 135.814 123.384 146.972 135.79C156.902 146.776 157.846 150.97 154.013 164.827C151.152 175.226 147.35 180.194 141.409 182.694C130.407 187.385 115.324 186.087 104.231 181.861C90.9057 176.74 76.4489 174.052 62.1477 176.09C57.9713 176.688 51.9311 177.344 53.2855 181.625C53.8195 183.045 53.4694 184.823 56.539 183.351C60.7473 181.33 65.38 180.743 70.1329 180.837L70.437 180.844C72.4634 180.951 72.7428 180.944 76.6363 181.399C84.9009 181.924 90.6864 182.878 99.202 185.902C94.8028 186.521 90.0251 188.031 83.2069 191.395C76.4807 194.697 66.3914 200.065 64.1918 207.655C63.9407 209.165 64.9769 210.585 66.5187 210.832C68.057 211.078 65.6169 217.054 68.6123 209.054C72.7958 200.259 81.6969 198.305 85.7213 196.329C100.963 188.829 104.075 191.576 119.444 191.114C126.234 190.927 159.377 186.701 162.51 182.448C160.201 184.166 167.935 183.844 187.881 189.333L187.866 189.326Z" fill="#125F31"/>
<path fill-rule="evenodd" clip-rule="evenodd" d="M178.64 140.562C185.837 144.11 208.749 154.138 224.401 146.673C234.08 142.107 242.536 137.6 248.445 134.329C242.034 132.17 232.889 129.239 222.548 126.462C205.764 121.896 185.084 135.812 178.644 140.562H178.64Z" fill="#125F31"/>
<path fill-rule="evenodd" clip-rule="evenodd" d="M173.36 127.019C178.828 122.359 195.169 107.148 194.26 91.812C193.695 82.3714 192.814 73.917 192.093 67.9589C188.04 72.4656 182.445 78.9133 176.504 86.3817C166.885 98.5096 171.539 120.137 173.364 127.019H173.36Z" fill="#125F31"/>
<path fill-rule="evenodd" clip-rule="evenodd" d="M174.086 147.538C176.286 152.166 183.861 166.329 194.923 168.735C201.712 170.217 207.873 171.266 212.24 171.943C209.853 168.301 206.395 163.18 202.246 157.655C195.552 148.708 179.306 147.628 174.086 147.534V147.538Z" fill="#125F31"/>
<path fill-rule="evenodd" clip-rule="evenodd" d="M205.604 111.006C209.876 110.912 223.268 110.051 228.799 102.704C232.194 98.1693 235.055 93.9716 237.035 90.9787C233.453 91.5342 228.392 92.3988 222.766 93.6001C213.684 95.5444 207.429 107.176 205.607 111.002L205.604 111.006Z" fill="#125F31"/>
<path fill-rule="evenodd" clip-rule="evenodd" d="M170.659 86.0391C173.046 83.7545 180.087 76.2895 179.238 69.2551C178.672 64.9359 178.014 61.0784 177.509 58.3632C175.779 60.5541 173.392 63.672 170.91 67.2795C166.825 73.1126 169.623 82.9559 170.659 86.0391Z" fill="#125F31"/>
<path fill-rule="evenodd" clip-rule="evenodd" d="M117.985 153.152C115.502 156.607 107.238 166.946 97.9335 167.283C92.2152 167.498 87.0591 167.436 83.4449 167.377C85.9275 164.756 89.5099 161.145 93.658 157.256C100.448 150.992 113.741 152.475 117.985 153.152Z" fill="#125F31"/>
<path fill-rule="evenodd" clip-rule="evenodd" d="M206.016 153.152C208.499 156.606 216.764 166.946 226.068 167.283C231.79 167.498 236.942 167.436 240.588 167.377C238.074 164.755 234.523 161.144 230.343 157.256C223.585 150.992 210.26 152.475 206.02 153.152H206.016Z" fill="#125F31"/>
<path fill-rule="evenodd" clip-rule="evenodd" d="M153.29 170.916C157.11 184.769 156.169 188.967 146.278 199.953C135.163 212.358 120.165 216.306 103.537 217.695C94.8621 218.407 87.662 218.188 80.4301 216.646C75.5782 215.598 68.1235 212.338 63.1124 210.477C62.3486 210.192 66.7903 218.025 67.448 218.261C79.6167 222.622 91.2303 224.236 104.004 223.188C111.642 222.57 118.503 221.431 124.702 219.577C124.076 220.657 123.45 221.799 122.824 223.063C116.908 234.604 114.295 242.083 112.19 255.627C111.957 257.138 118.998 259.117 120.437 259.61C121.94 260.009 118.605 260.134 118.98 258.651C119.136 257.974 117.806 259.301 117.364 258.971C115.313 257.454 121.502 239.406 122.216 237.298C129.292 216.532 132.811 219.785 146.058 208.032C150.129 204.421 153.761 200.071 157.05 194.824C157.488 199.39 157.831 218.122 158.114 237.066C158.238 246.322 157.736 260.061 157.782 267.658C157.789 269.057 159.433 268.182 161.028 268.214C162.623 268.182 164.989 269.012 164.943 267.616C164.678 259.457 165.035 246.326 165.162 237.069C165.445 218.122 165.788 199.394 166.258 194.828C169.547 200.074 173.179 204.425 177.218 208.036C190.493 219.792 193.124 215.903 200.201 236.67C203.115 245.281 204.685 249.631 205.498 257.224C205.717 259.294 211.252 256.978 210.997 255.471C209.218 244.954 206.368 234.604 200.452 223.066C199.826 221.799 199.2 220.657 198.602 219.58C204.77 221.431 211.658 222.573 219.269 223.191C232.042 224.24 243.493 222.292 254.661 218.674C255.128 218.521 259.177 214.858 258.395 213.438C257.426 211.65 261.674 209.192 259.028 210.352C253.413 212.81 251.736 214.806 242.849 216.65C235.639 218.146 228.446 218.41 219.743 217.698C203.146 216.31 188.117 212.362 177.002 199.956C167.139 188.971 166.166 184.773 169.989 170.919C172.868 160.52 150.451 160.52 153.301 170.919L153.29 170.916Z" fill="#125F31"/>
<path fill-rule="evenodd" clip-rule="evenodd" d="M80.64 181.229C80.64 181.229 108.673 243.754 162.734 242.48C216.795 241.206 246.688 180.379 246.688 180.379L251.409 179.955C251.409 179.955 222.948 247.574 161.878 247.431C100.808 247.292 75.3496 180.945 75.3496 180.945" fill="#125F31"/>
<path fill-rule="evenodd" clip-rule="evenodd" d="M118.743 191.059C118.743 191.059 134.116 213.11 160.536 213.11C186.956 213.11 202.973 189.559 202.973 189.559L208.419 190.01C208.419 190.01 194.326 218.961 161.18 218.811C128.033 218.662 111.217 190.913 111.217 190.913" fill="#125F31"/>
</svg>
