<svg width="28" height="18" viewBox="0 0 28 18" fill="none" xmlns="http://www.w3.org/2000/svg">
<path d="M1.09107 0.000108828C0.948517 -0.00193051 0.806989 0.02471 0.674706 0.0784819C0.542424 0.132254 0.422025 0.212085 0.320508 0.313336C0.21899 0.414586 0.138378 0.535238 0.0833561 0.668278C0.0283342 0.801318 0 0.944093 0 1.08831C0 1.23252 0.0283342 1.3753 0.0833561 1.50834C0.138378 1.64138 0.21899 1.76203 0.320508 1.86328C0.422025 1.96453 0.542424 2.04436 0.674706 2.09813C0.806989 2.1519 0.948517 2.17854 1.09107 2.1765H26.9089C27.0515 2.17854 27.193 2.1519 27.3253 2.09813C27.4576 2.04436 27.578 1.96453 27.6795 1.86328C27.781 1.76203 27.8616 1.64138 27.9166 1.50834C27.9717 1.3753 28 1.23252 28 1.08831C28 0.944093 27.9717 0.801318 27.9166 0.668278C27.8616 0.535238 27.781 0.414586 27.6795 0.313336C27.578 0.212085 27.4576 0.132254 27.3253 0.0784819C27.193 0.02471 27.0515 -0.00193051 26.9089 0.000108828H1.09107ZM1.09107 7.61749C0.948517 7.61545 0.806989 7.64209 0.674706 7.69587C0.542424 7.74964 0.422025 7.82947 0.320508 7.93072C0.21899 8.03197 0.138378 8.15262 0.0833561 8.28566C0.0283342 8.4187 0 8.56148 0 8.70569C0 8.8499 0.0283342 8.99268 0.0833561 9.12572C0.138378 9.25876 0.21899 9.37941 0.320508 9.48066C0.422025 9.58191 0.542424 9.66174 0.674706 9.71552C0.806989 9.76929 0.948517 9.79593 1.09107 9.79389H26.9089C27.0515 9.79593 27.193 9.76929 27.3253 9.71552C27.4576 9.66174 27.578 9.58191 27.6795 9.48066C27.781 9.37941 27.8616 9.25876 27.9166 9.12572C27.9717 8.99268 28 8.8499 28 8.70569C28 8.56148 27.9717 8.4187 27.9166 8.28566C27.8616 8.15262 27.781 8.03197 27.6795 7.93072C27.578 7.82947 27.4576 7.74964 27.3253 7.69587C27.193 7.64209 27.0515 7.61545 26.9089 7.61749H1.09107ZM1.09107 15.2349C0.948517 15.2328 0.806989 15.2595 0.674706 15.3133C0.542424 15.367 0.422025 15.4469 0.320508 15.5481C0.21899 15.6494 0.138378 15.77 0.0833561 15.903C0.0283342 16.0361 0 16.1789 0 16.3231C0 16.4673 0.0283342 16.6101 0.0833561 16.7431C0.138378 16.8761 0.21899 16.9968 0.320508 17.098C0.422025 17.1993 0.542424 17.2791 0.674706 17.3329C0.806989 17.3867 0.948517 17.4133 1.09107 17.4113H26.9089C27.0515 17.4133 27.193 17.3867 27.3253 17.3329C27.4576 17.2791 27.578 17.1993 27.6795 17.098C27.781 16.9968 27.8616 16.8761 27.9166 16.7431C27.9717 16.6101 28 16.4673 28 16.3231C28 16.1789 27.9717 16.0361 27.9166 15.903C27.8616 15.77 27.781 15.6494 27.6795 15.5481C27.578 15.4469 27.4576 15.367 27.3253 15.3133C27.193 15.2595 27.0515 15.2328 26.9089 15.2349H1.09107Z" fill="white"/>
</svg>
