<svg width="57" height="56" viewBox="0 0 57 56" fill="none" xmlns="http://www.w3.org/2000/svg">
<g clip-path="url(#clip0_358_4724)">
<path d="M56.9998 45.3774C55.8904 45.8803 55.9599 46.8598 55.9288 47.8355C55.9139 48.3045 55.7228 48.7698 55.6025 49.2351C55.5206 49.5512 55.4225 49.8634 55.3294 50.177C54.9596 51.4148 54.0711 52.1886 52.9791 52.7191C51.712 53.3349 50.4413 53.9833 49.106 54.4034C47.6541 54.8599 46.1351 55.1308 44.6286 55.3666C43.4013 55.5585 42.1492 55.62 40.9057 55.6613C39.0455 55.724 37.1828 55.7027 35.3214 55.7466C34.4453 55.7667 33.5729 55.8934 32.6967 55.9046C31.601 55.9184 30.5039 55.8332 29.4082 55.8444C28.6313 55.852 27.857 55.9749 27.0801 55.9962C26.3939 56.015 25.7051 55.9862 25.0201 55.9372C23.6352 55.8369 22.2553 55.6689 20.8691 55.6036C19.478 55.5384 18.0782 55.6325 16.692 55.5309C15.2041 55.4231 13.7211 55.2023 12.2456 54.9653C11.3422 54.8198 10.414 54.6593 9.57632 54.3106C8.64063 53.9206 7.81787 53.2609 6.90204 52.8094C6.02468 52.378 5.57421 51.4838 4.84204 50.9771C4.15206 50.5005 3.95475 49.6264 3.16798 49.269C2.96446 49.1762 2.86518 48.5892 2.90613 48.2544C3.01906 47.3388 2.73364 46.5224 2.38989 45.7285C1.8054 44.3791 1.75328 42.9343 1.56837 41.5146C1.43311 40.4862 1.48026 39.4177 1.22338 38.4244C0.945408 37.3483 1.10425 36.2108 0.709624 35.1875C0.307552 34.1453 0.518516 33.0955 0.476323 32.0508C0.370841 29.4109 0.312516 26.7696 0.214479 24.1297C0.1636 22.7765 0.0146841 21.4245 0.00351542 20.0713C-0.0126171 18.1424 0.051913 16.2123 0.090383 14.2834C0.106516 13.477 0.0965878 12.6668 0.184696 11.8679C0.259154 11.2045 0.461431 10.5548 0.606624 9.90017C0.76795 9.17276 0.941685 8.44661 1.0844 7.71545C1.32762 6.47134 1.8054 5.31878 2.46435 4.25151C2.63684 3.97183 2.99424 3.80127 3.28214 3.60562C3.77977 3.26826 4.28609 2.94469 4.79612 2.62614C5.02074 2.48567 5.26521 2.37656 5.49478 2.24362C6.88591 1.43972 8.41353 1.14876 9.98211 1.02961C11.7418 0.895419 13.504 0.795087 15.2649 0.669673C15.6335 0.643336 15.9971 0.554292 16.3656 0.52043C16.975 0.463993 17.5843 0.418844 18.1948 0.383728C19.8329 0.289667 21.4722 0.342341 23.1103 0.30848C25.2261 0.26333 27.342 0.171778 29.4578 0.119104C30.7521 0.0864962 32.0477 0.0864962 33.342 0.0752089C35.3847 0.0576509 37.4273 0.0413471 39.4712 0.0262973C40.7221 0.0175183 41.9729 -0.0150894 43.2226 0.0162642C43.8121 0.0313139 44.3978 0.236993 44.986 0.238248C46.0024 0.240756 46.9728 0.378712 47.9134 0.780037C48.2038 0.904198 48.5426 0.936805 48.8628 0.961888C50.2142 1.06724 51.2777 1.91253 52.3673 2.54211C53.3067 3.08641 53.9644 4.14365 54.2498 5.29997C54.4471 6.10011 54.6308 6.90527 54.7884 7.71419C54.8504 8.03149 54.8107 8.36886 54.848 8.69243C55.0577 10.4884 55.3021 12.2805 55.4821 14.079C55.5814 15.071 55.5826 16.0718 55.6223 17.0688C55.6583 17.9831 55.7042 18.8974 55.7154 19.8117C55.7328 21.3743 55.6447 22.942 55.7526 24.4971C55.8705 26.1852 55.5392 27.8833 55.9772 29.5714C56.1894 30.3916 56.1187 31.2833 56.2093 32.1399C56.2999 33.0015 56.4624 33.8568 56.5369 34.7197C56.6101 35.5725 56.6201 36.4316 56.6461 37.2881C56.6647 37.9064 56.6635 38.5247 56.6722 39.1443C56.6722 39.2245 56.7044 39.3123 56.6821 39.3838C56.3098 40.5615 56.5977 41.7893 56.4302 42.9544C56.3272 43.6692 56.9402 44.2035 56.6263 44.8807C56.5878 44.9622 56.8484 45.1855 56.9973 45.3786L56.9998 45.3774ZM36.5102 52.299C37.6693 52.4382 38.7266 52.6577 39.7851 52.6677C40.9913 52.679 42.21 52.5774 43.4025 52.388C44.5541 52.2037 45.7194 51.9566 46.8015 51.534C48.1815 50.9947 49.6272 50.5005 50.7329 49.4433C51.7964 48.4262 53.1416 47.626 52.9989 45.7473C52.8885 44.2913 53.1652 42.8101 53.1727 41.339C53.1813 39.5544 53.087 37.7685 53.0386 35.9838C53.0026 34.6519 52.9716 33.3188 52.9319 31.9869C52.8798 30.2386 52.8599 28.4878 52.7532 26.7421C52.6142 24.4595 52.4119 22.182 52.2208 19.9032C52.0756 18.1637 51.9317 16.4242 51.7393 14.6897C51.5557 13.0368 51.2938 11.3913 51.0928 9.73964C50.9302 8.40774 50.28 7.26897 49.7687 6.06876C49.4386 5.29495 48.998 4.68544 48.153 4.52742C46.2419 4.17124 44.3233 3.85269 42.4073 3.52034C41.8935 3.4313 41.381 3.27829 40.866 3.27327C39.5493 3.26073 38.2302 3.36608 36.9135 3.32846C35.263 3.2808 33.6163 3.10647 31.9658 3.04502C30.4084 2.98733 28.8473 2.9773 27.2886 2.9936C24.8526 3.01994 22.4153 3.16667 19.9818 3.10396C18.4095 3.06383 16.8856 3.48146 15.2959 3.33347C14.1853 3.23063 13.0349 3.55169 11.9044 3.70094C10.8495 3.83889 9.79969 4.01698 8.74363 4.14365C7.81415 4.25527 7.06709 4.61144 6.55333 5.45047C6.42923 5.65238 6.07307 5.70129 5.83357 5.838C5.59406 5.97344 5.25404 6.07754 5.15724 6.28949C4.91525 6.81999 4.77999 7.40066 4.61494 7.96377C4.36923 8.80154 4.04782 9.62802 3.91628 10.4846C3.76612 11.4616 3.73882 12.4649 3.74378 13.4557C3.75619 16.058 3.7897 18.6616 3.86416 21.264C3.92248 23.2894 4.05651 25.3136 4.15454 27.3378C4.17192 27.704 4.15827 28.0727 4.18805 28.4377C4.27988 29.5626 4.40522 30.6838 4.48092 31.81C4.60129 33.611 4.32704 35.4119 4.60625 37.2254C4.85693 38.8571 4.85817 40.5276 4.98847 42.1793C5.09395 43.5225 5.16841 44.8732 5.36697 46.2038C5.54566 47.3953 6.03336 48.4789 7.15768 49.0871C8.143 49.6214 9.12709 50.1908 10.1745 50.567C11.4129 51.0122 12.6465 51.4938 14.0028 51.5854C15.6235 51.6957 17.2293 52.0043 18.8488 52.1635C20.1791 52.294 21.5169 52.3767 22.8522 52.4018C24.8588 52.4394 26.8667 52.4194 28.8733 52.3981C29.3536 52.393 29.5298 52.1447 29.4268 51.6029C29.2655 50.7514 29.1724 49.8797 29.1327 49.0119C29.083 47.9383 29.0967 46.8598 29.1215 45.785C29.1724 43.6466 29.2245 41.5071 29.3263 39.3713C29.3722 38.4006 29.124 37.9165 28.3769 37.8926C28.197 37.8876 28.0146 37.9591 27.8334 37.9917C26.8381 38.1711 25.8652 38.5849 24.9295 38.3391C24.4605 37.8613 24.8476 37.4863 24.8774 37.085C24.9506 36.0904 24.9122 35.0871 24.9568 34.0888C25.0152 32.8134 24.7583 31.4501 25.8565 30.4305C25.9136 30.3778 25.9335 30.2838 25.9732 30.211C26.2673 29.6717 26.6483 29.3218 27.3283 29.3695C28.0692 29.4209 28.8175 29.362 29.5596 29.3971C30.0212 29.4184 30.2855 29.1901 30.3823 28.8001C30.5995 27.9197 30.8812 27.0318 30.9259 26.1363C31.0078 24.5335 31.2957 23.0198 32.2947 21.7443C32.9164 20.9504 33.5071 20.0851 34.3993 19.5721C35.2779 19.0667 36.1888 18.5926 37.1344 18.2365C38.0875 17.8778 39.0827 17.5956 40.1425 17.8376C40.485 17.9166 40.8635 17.8577 41.2234 17.8376C41.5895 17.8163 41.9531 17.7411 42.3179 17.7285C42.8578 17.7085 43.3988 17.7235 44.0441 17.7235C44.2749 18.3067 44.2923 19.0178 44.2129 19.7377C44.193 19.9195 44.0875 20.0976 44.0962 20.2744C44.1297 20.9329 44.2017 21.5888 44.2464 22.2472C44.2911 22.9019 43.5105 23.5064 42.8689 23.5164C42.3291 23.5252 41.7942 23.7773 41.2569 23.9227C40.9243 24.013 40.5967 24.1711 40.2617 24.1849C39.2019 24.23 38.1781 24.4131 37.4025 25.1882C36.6616 25.9269 36.4767 26.9076 36.5115 27.936C36.5214 28.247 36.5263 28.5668 36.468 28.8691C36.3092 29.6868 36.4035 29.7746 37.2399 29.7633C38.3344 29.747 39.429 29.7871 40.5235 29.8197C40.6091 29.8222 40.7655 29.9602 40.7618 30.0279C40.7171 30.897 40.6091 31.7649 40.5967 32.6353C40.5818 33.6649 40.5446 34.7109 40.7022 35.7192C40.8424 36.6184 40.4466 37.3019 39.5692 37.322C38.6509 37.3433 37.7326 37.4211 36.8155 37.4876C36.329 37.5227 36.1417 37.8613 36.1354 38.3015C36.128 38.8295 36.1665 39.3575 36.1752 39.8855C36.1789 40.0886 36.1392 40.2931 36.1479 40.4962C36.1789 41.1597 36.2509 41.8231 36.2546 42.4866C36.2583 43.086 36.1367 43.688 36.1677 44.2838C36.2496 45.8351 36.3501 47.384 36.339 48.9416C36.3315 50.0566 36.4494 51.1728 36.5115 52.2977L36.5102 52.299Z" fill="white"/>
</g>
<defs>
<clipPath id="clip0_358_4724">
<rect width="57" height="56" fill="white"/>
</clipPath>
</defs>
</svg>
