<svg width="60" height="56" viewBox="0 0 60 56" fill="none" xmlns="http://www.w3.org/2000/svg">
<g clip-path="url(#clip0_358_4726)">
<path d="M0.588847 37.855C0.493522 35.2849 0.436593 33.1558 0.328029 31.0292C0.25786 29.6402 0.0605915 28.2576 0.0155772 26.8685C-0.0307609 25.4664 0.0314646 24.0605 0.0645633 22.6571C0.0950141 21.3603 0.133409 20.0623 0.198282 18.7669C0.305522 16.6495 0.436593 14.5346 0.558396 12.4172C0.627241 11.2089 0.643129 9.99413 0.778171 8.79235C0.992651 6.87912 1.5871 5.06343 2.70187 3.47276C3.29632 2.62475 4.04435 1.86388 5.12734 1.56343C5.25179 1.52832 5.42788 1.4854 5.47422 1.39435C5.86213 0.620476 6.60751 0.81427 7.25625 0.721925C8.85823 0.491713 10.4496 0.180862 12.0582 0.023486C12.9386 -0.0623557 13.8429 0.118432 14.7379 0.136641C15.9546 0.161353 17.1739 0.141844 18.3907 0.145745C18.6488 0.145745 18.907 0.176961 19.1665 0.183464C20.6242 0.214679 22.0818 0.240692 23.5408 0.273207C24.2226 0.288815 24.9032 0.335638 25.585 0.330435C27.1764 0.318729 28.7691 0.232888 30.3591 0.275809C31.887 0.317429 33.4122 0.482609 34.9387 0.594463C35.0711 0.603568 35.2061 0.639985 35.3332 0.621777C37.5826 0.292717 39.824 0.838982 42.0748 0.667299C43.7125 0.542438 45.3582 0.487812 47.0012 0.459198C47.8564 0.44359 48.7117 0.565849 49.5683 0.598365C51.3146 0.665998 52.9258 1.2786 54.5212 1.86778C56.0226 2.42185 57.3359 3.18142 58.3871 4.5718C59.6157 6.19759 59.5059 7.8845 59.5509 9.65727C59.5787 10.7316 59.7521 11.8007 59.809 12.875C59.8421 13.5162 59.7614 14.1627 59.7587 14.8065C59.7534 16.0681 59.7587 17.331 59.7746 18.5926C59.7839 19.4107 59.8382 20.2301 59.8342 21.0482C59.8276 22.6831 59.8236 24.318 59.7654 25.9516C59.727 27.0116 59.7998 28.043 59.9812 29.0952C60.0857 29.7052 59.6952 30.3828 59.6237 31.041C59.4913 32.2622 59.4489 33.4926 59.3364 34.7178C59.1683 36.566 58.9803 38.4116 58.7843 40.2572C58.6374 41.6437 58.5036 43.0341 58.2839 44.4101C58.1766 45.08 57.9502 45.7498 57.6669 46.3702C56.9943 47.8451 56.2887 49.3083 55.5247 50.739C55.301 51.1578 54.8204 51.4388 54.4828 51.8055C54.0975 52.2256 53.7811 52.7147 53.3601 53.0919C52.9497 53.4612 52.473 53.7851 51.9739 54.027C51.169 54.4185 50.3322 54.7541 49.4889 55.0597C49.0268 55.2275 48.5237 55.2847 48.0378 55.3901C47.8869 55.4226 47.7188 55.4174 47.5864 55.4837C46.5378 56.0157 45.4098 55.9324 44.2884 55.9233C42.6388 55.9103 40.9878 55.9051 39.3382 55.9168C37.3363 55.9311 35.3319 56.0534 33.3354 55.965C31.6791 55.8921 30.0123 55.8908 28.3626 55.5904C27.5603 55.4447 26.6481 55.7647 25.8868 55.541C24.2504 55.0597 22.5915 55.3771 20.9512 55.1742C19.2565 54.9648 17.5248 55.0662 15.8182 54.9297C14.1024 54.7931 12.3654 54.758 10.717 54.1259C10.1385 53.9035 9.48181 53.8787 8.86087 53.7591C7.43366 53.4847 6.2527 52.7615 5.2359 51.7743C3.6326 50.2175 2.04784 48.6229 1.41499 46.4196C1.18198 45.6067 1.21375 44.7197 1.13431 43.8665C0.935721 41.7139 0.741101 39.5614 0.586199 37.8498L0.588847 37.855ZM15.6368 3.52349C15.6329 3.49617 15.6289 3.46756 15.6262 3.44025C14.6148 3.59112 13.6072 3.82523 12.5904 3.87466C10.9686 3.95269 9.44209 4.35979 7.94867 4.92687C6.38774 5.51996 5.46495 6.65801 5.20678 8.27339C5.08762 9.01735 5.10616 9.78213 5.0479 10.5365C4.93802 11.988 4.82813 13.4408 4.69971 14.891C4.57261 16.3282 4.36872 17.7615 4.29325 19.2C4.15556 21.8494 4.08407 24.5014 3.99272 27.1521C3.92784 29.0172 3.97286 30.8927 3.79148 32.7461C3.60348 34.6762 3.859 36.5686 4.15953 38.4376C4.57128 40.9895 4.98833 43.5491 5.76019 46.0398C6.21165 47.4965 7.21918 48.4837 8.25715 49.4852C8.51665 49.7362 8.77217 50.077 9.09124 50.1706C10.2126 50.4984 11.3499 50.808 12.5031 50.99C13.7118 51.1812 14.9471 51.2085 16.1691 51.3243C17.113 51.414 18.0544 51.5441 18.9983 51.6365C20.6294 51.7951 22.2606 51.9525 23.8943 52.0865C25.589 52.2256 27.2849 52.3466 28.9822 52.4481C29.3437 52.4702 29.7144 52.3245 30.0771 52.3388C30.7444 52.3648 31.4077 52.4871 32.075 52.5066C33.7286 52.556 35.3822 52.5664 37.0358 52.5976C37.5694 52.608 38.1016 52.6601 38.6338 52.6562C39.4216 52.6497 40.208 52.5846 40.9957 52.5885C41.9702 52.5937 42.9433 52.6483 43.9164 52.6744C44.4261 52.6874 44.9411 52.6457 45.4469 52.6965C45.9274 52.7446 46.3167 52.4754 46.8423 52.517C48.2973 52.634 49.6424 52.106 50.7532 51.1604C52.0163 50.0848 52.6677 48.619 53.2356 47.1181C53.5269 46.3507 53.8063 45.5781 54.0525 44.7951C54.2458 44.1786 54.4537 43.5517 54.5252 42.9144C54.7807 40.624 54.9925 38.3297 55.1991 36.0354C55.2851 35.0768 55.35 34.1143 55.3593 33.1519C55.3672 32.2818 55.26 31.4103 55.2533 30.5389C55.2467 29.6051 55.3182 28.6725 55.3195 27.7386C55.3195 26.7489 55.2441 25.7578 55.2653 24.768C55.2878 23.7197 55.3937 22.674 55.4466 21.6257C55.5089 20.4239 55.5486 19.2208 55.6068 18.019C55.6479 17.1775 55.7789 16.3321 55.7392 15.4958C55.6651 13.8999 55.5142 12.3067 55.3619 10.716C55.2745 9.80814 55.1368 8.9107 54.3425 8.26299C54.1359 8.09391 54.0538 7.78436 53.895 7.55154C53.7507 7.33954 53.6236 7.06381 53.4144 6.95455C52.575 6.52014 51.8826 5.78789 50.8525 5.71635C50.6486 5.70204 50.454 5.54987 50.2541 5.46273C48.8163 4.83192 47.3811 4.21022 45.7686 4.13348C44.4314 4.06975 43.0955 3.97871 41.7636 3.85905C40.1815 3.71598 38.6087 3.45455 37.0239 3.37912C34.5375 3.26206 32.0445 3.27376 29.5555 3.20353C27.8463 3.15541 26.1344 2.97202 24.4411 3.37782C24.359 3.39732 24.2663 3.37391 24.1776 3.37131C22.6551 3.33099 21.1312 3.24385 19.6087 3.26726C18.2834 3.28677 16.9608 3.43114 15.6355 3.51958L15.6368 3.52349Z" fill="white"/>
<path d="M26.631 39.2062C26.6429 39.3675 26.6574 39.5509 26.68 39.8618C26.439 39.6992 26.2748 39.5821 26.104 39.4742C25.8684 39.3233 25.6685 39.2219 25.3309 39.1984C24.9615 39.1737 24.6199 38.6405 24.2796 38.3153C24.1631 38.2048 24.1155 38.0149 23.9884 37.9264C23.423 37.5362 22.8855 37.0381 22.2527 36.8274C21.3868 36.5386 20.9446 35.8545 20.4984 35.2354C20.0231 34.5747 19.7703 33.7475 19.4856 32.9697C19.1268 31.9916 18.8091 30.9967 18.5205 29.9952C18.2199 28.9573 18.3153 27.9233 18.6529 26.8997C18.7733 26.5342 18.7813 26.1297 18.9243 25.7746C19.475 24.4077 20.0443 23.0485 20.6401 21.6997C20.9261 21.0546 21.2796 20.4368 21.6159 19.8138C21.6913 19.6734 21.7986 19.5225 21.931 19.4405C23.4588 18.4976 24.9509 17.4831 26.5502 16.6754C27.2175 16.3385 28.1217 16.3593 28.9135 16.3802C30.0454 16.4101 31.1734 16.5909 32.3041 16.7066C32.3253 16.7092 32.3517 16.7014 32.369 16.7092C33.2044 17.128 34.0451 17.5351 34.8699 17.9734C35.4021 18.2557 35.8801 18.6589 36.4348 18.8761C37.5443 19.3105 38.1771 20.2573 39.0059 20.9974C40.163 22.0301 40.6304 23.4127 41.0567 24.803C41.4499 26.0829 41.3334 27.3653 41.1706 28.7075C41.0223 29.9262 40.6277 31.0292 40.2756 32.1581C40.0783 32.7928 39.6692 33.3937 39.2469 33.927C38.4763 34.9025 37.727 35.9326 36.7856 36.7311C34.8381 38.3855 32.5371 39.2635 29.913 39.2062C28.83 39.1828 27.7457 39.2023 26.6283 39.2023L26.631 39.2062ZM37.5257 28.2549C37.4026 26.2168 37.2636 24.6054 36.2216 23.2488C35.8443 22.7585 35.4365 22.2031 34.907 21.9313C33.9815 21.4565 33.0654 20.9922 31.9413 20.84C30.9404 20.7048 29.9514 20.2677 28.8923 20.1377C27.8093 20.005 26.7872 20.0401 25.7545 20.3913C24.51 20.8153 23.6852 21.5996 23.3423 22.8599C23.2509 23.1942 23.194 23.5505 23.0325 23.8497C22.2302 25.3441 21.8277 26.9153 22.0395 28.6048C22.0964 29.06 22.205 29.5165 22.3546 29.9509C22.4963 30.3593 22.871 30.7365 22.8789 31.1332C22.8948 31.8629 23.0854 32.413 23.6614 32.9034C24.3472 33.4887 24.8542 34.3237 25.6115 34.7685C26.6733 35.3915 27.8795 35.7934 29.0525 36.2122C29.5926 36.4047 30.2453 36.5933 30.767 36.4671C31.7295 36.2317 32.6563 35.809 33.5565 35.3798C34.5508 34.9051 35.4352 34.286 35.8721 33.2025C36.2773 32.1958 36.9273 31.2945 37.0849 30.1799C37.1947 29.4034 37.4357 28.6438 37.5284 28.2562L37.5257 28.2549Z" fill="white"/>
<path d="M42.9134 13.5683C43.0285 11.9464 43.4549 11.1946 44.7709 10.7082C45.315 10.5066 46.251 10.8981 46.7409 11.3117C47.4188 11.8839 47.3963 12.4874 47.1593 13.2405C46.8005 14.3864 46.2802 15.3553 44.9973 15.6727C44.7629 15.7299 44.4213 15.7286 44.2479 15.5999C43.5211 15.0575 42.7148 14.5281 42.912 13.5683H42.9134Z" fill="white"/>
</g>
<defs>
<clipPath id="clip0_358_4726">
<rect width="60" height="56" fill="white"/>
</clipPath>
</defs>
</svg>
