<svg width="33" height="32" viewBox="0 0 33 32" fill="none" xmlns="http://www.w3.org/2000/svg">
<path fill-rule="evenodd" clip-rule="evenodd" d="M16.4423 0C24.1327 0.102993 30.7065 5.05675 32.4454 12.3788C35.3332 24.5517 23.3343 35.1448 11.1554 31.1382C-1.02355 27.127 -3.94812 11.6119 5.97018 3.65221C8.98714 1.22935 12.5258 0.049477 16.419 0H16.4418H16.4423ZM16.4283 0.55182C13.1856 0.592209 10.2511 1.41312 7.55289 3.18571C-3.01635 10.1312 -1.2587 25.8078 10.6067 30.3577C22.3055 34.8444 34.4938 24.8435 31.9798 12.8771C30.4527 5.62624 24.0034 0.64623 16.4283 0.55182Z" fill="white"/>
<path fill-rule="evenodd" clip-rule="evenodd" d="M13.9973 13.169C12.941 13.6849 9.58246 15.143 7.28029 14.0575C5.8642 13.3936 4.62305 12.7383 3.75098 12.2627C4.69676 11.9487 6.03446 11.5226 7.55696 11.1187C10.0206 10.4548 13.0557 12.4783 13.9968 13.169H13.9973Z" fill="white"/>
<path fill-rule="evenodd" clip-rule="evenodd" d="M14.7771 11.1991C13.9746 10.5216 11.5707 8.30976 11.7046 6.07976C11.7877 4.70703 11.9169 3.47768 12.0228 2.61133C12.6177 3.26665 13.4389 4.20418 14.311 5.29015C15.7224 7.05365 15.0398 10.1985 14.7771 11.1991Z" fill="white"/>
<path fill-rule="evenodd" clip-rule="evenodd" d="M14.6696 14.1826C14.3421 14.8556 13.2302 16.915 11.6111 17.2648C10.6098 17.4804 9.70605 17.6329 9.06445 17.7313C9.41484 17.2017 9.92718 16.4571 10.5314 15.6538C11.514 14.3528 13.8993 14.1958 14.6696 14.1821V14.1826Z" fill="white"/>
<path fill-rule="evenodd" clip-rule="evenodd" d="M10.0436 8.87229C9.41189 8.85866 7.44661 8.7334 6.6389 7.66464C6.1359 7.00501 5.71647 6.39436 5.42578 5.95898C5.95629 6.0398 6.69911 6.16556 7.52032 6.34032C8.85335 6.62317 9.77162 8.31519 10.0436 8.87179V8.87229Z" fill="white"/>
<path fill-rule="evenodd" clip-rule="evenodd" d="M15.169 5.2406C14.8233 4.9084 13.7851 3.82294 13.9144 2.80008C13.9928 2.17202 14.0898 1.61111 14.1636 1.21631C14.4174 1.53488 14.7678 1.98825 15.1369 2.51281C15.7317 3.36098 15.3211 4.79228 15.169 5.2406Z" fill="white"/>
<path fill-rule="evenodd" clip-rule="evenodd" d="M20.2371 20.2597C21.3075 20.5065 21.8032 20.4914 22.7999 20.5187C25.0605 20.5858 25.5127 20.1865 27.75 21.277C28.3402 21.5642 29.5611 22.4644 30.0589 23.0809C30.8266 24.1042 30.9486 23.3252 30.5686 23.3858C30.3428 23.4216 30.9517 23.1435 30.9149 22.9238C30.592 21.8202 29.111 21.0392 28.1237 20.5596C27.1182 20.0703 26.4169 19.8507 25.7759 19.7609C27.0212 19.3211 27.8704 19.1823 29.0882 19.106C29.7308 19.101 28.7632 19.1192 29.4645 19.0742L30.1284 19.0626C30.877 19.0742 31.2839 19.1692 31.9375 19.3469C32.4758 19.4933 32.2572 19.2772 32.3356 19.0707C32.4623 18.5633 32.7431 18.4689 31.2102 18.3346C29.2699 18.165 26.9936 18.429 25.033 19.1737C23.4093 19.7881 21.1949 19.9769 19.5758 19.2949C18.7043 18.9314 18.1504 18.2089 17.7258 16.6968C17.1631 14.6824 17.3058 14.072 18.7593 12.4746C20.397 10.6707 22.6115 10.0967 25.0564 9.89475C26.3385 9.79175 27.4058 9.87455 28.4668 10.0987C29.1816 10.2512 30.2759 10.6682 31.0119 10.9444C31.7485 11.2205 31.598 11.1554 31.7407 10.8949C31.856 10.6884 31.8617 10.3229 30.9258 9.97855C29.1416 9.32172 26.8691 8.94307 24.9868 9.09554C23.8656 9.18541 22.8508 9.35151 21.9424 9.6206C22.0301 9.46359 22.122 9.29749 22.2144 9.11372C23.0859 7.43554 24.161 3.8419 23.8843 2.04709C23.8521 1.82748 23.755 1.71085 23.5427 1.63866C23.3211 1.58009 23.0999 1.71035 23.0397 1.92593C23.0169 2.02437 23.0833 2.57872 23.0122 3.4067C22.9167 4.51286 22.6063 5.88358 22.1775 7.13514C21.1346 10.1548 20.7474 9.5893 18.7915 11.2988C18.1966 11.8238 17.6614 12.4564 17.1771 13.2193C17.108 12.5554 17.0572 9.83164 17.0156 7.07658C16.997 5.7306 16.9933 1.56545 16.9933 0.420917C16.9933 0.217456 16.7338 0.0230819 16.4986 0.019043C16.2635 0.0235868 16.0019 0.205339 15.9868 0.408295C15.9089 1.46448 15.9962 5.7306 15.9775 7.07658C15.9359 9.83164 15.8851 12.5549 15.8207 13.2193C15.3364 12.4564 14.8012 11.8238 14.2016 11.2988C12.2504 9.5893 11.8579 10.1548 10.8156 7.13514C10.3863 5.88358 10.1029 4.51034 9.98039 3.4067C9.88592 2.55297 9.95807 1.97944 9.94405 1.87948C9.89889 1.55636 9.67101 1.5806 9.44988 1.63916C9.23757 1.71085 9.14102 1.82748 9.10832 2.0476C8.83631 3.8424 9.90668 7.43604 10.7782 9.11422C10.8706 9.29799 10.9625 9.4641 11.0549 9.62111C10.1413 9.35201 9.13116 9.18591 8.00576 9.09605C6.12354 8.94358 4.12503 9.1329 2.37309 9.86799C1.24718 10.34 0.903024 10.8131 1.01826 11.0196C1.16101 11.2796 1.12208 11.3185 1.98118 10.9449C2.70168 10.6319 3.81721 10.2002 4.53252 10.0477C5.59821 9.82356 6.65924 9.79175 7.93724 9.89525C10.3868 10.0972 12.5966 10.6712 14.2344 12.4751C15.692 14.0725 15.8306 14.6824 15.2679 16.6973C14.8479 18.2094 14.2899 18.9319 13.4178 19.2954C11.8029 19.9774 9.589 19.7886 7.9606 19.1742C6.00466 18.4295 3.88261 18.0388 1.7834 18.3351C1.17036 18.422 0.283747 18.5174 0.482559 19.1399C0.560942 19.3464 0.509552 19.6049 0.960124 19.3908C1.57784 19.097 2.25785 19.0116 2.95551 19.0253L3.00016 19.0263C3.2976 19.0419 3.33861 19.0409 3.91013 19.1071C5.12324 19.1833 5.97248 19.3221 7.22245 19.7619C6.5767 19.8517 5.87541 20.0714 4.8746 20.5606C3.88729 21.0407 2.40632 21.8212 2.08344 22.9249C2.04658 23.1445 2.19868 23.351 2.425 23.3868C2.65081 23.4227 2.29263 24.2915 2.73231 23.1283C3.34639 21.8495 4.65295 21.5653 5.24367 21.278C7.48096 20.1875 7.93776 20.5868 10.1937 20.5197C11.1904 20.4924 16.0553 19.878 16.5152 19.2595C16.1763 19.5094 17.3115 19.4625 20.2392 20.2607L20.2371 20.2597Z" fill="white"/>
<path fill-rule="evenodd" clip-rule="evenodd" d="M18.8828 13.169C19.9392 13.6849 23.3024 15.143 25.5999 14.0575C27.0206 13.3936 28.2618 12.7383 29.1292 12.2627C28.1881 11.9487 26.8457 11.5226 25.3279 11.1187C22.8643 10.4548 19.8286 12.4783 18.8833 13.169H18.8828Z" fill="white"/>
<path fill-rule="evenodd" clip-rule="evenodd" d="M18.1076 11.1991C18.9102 10.5216 21.3089 8.30976 21.1755 6.07976C21.0924 4.70703 20.9632 3.47768 20.8573 2.61133C20.2624 3.26665 19.4412 4.20418 18.5691 5.29015C17.1572 7.05365 17.8403 10.1985 18.1082 11.1991H18.1076Z" fill="white"/>
<path fill-rule="evenodd" clip-rule="evenodd" d="M18.2139 14.1826C18.5367 14.8556 19.6486 16.915 21.2724 17.2648C22.269 17.4804 23.1733 17.6329 23.8144 17.7313C23.464 17.2017 22.9563 16.4571 22.3474 15.6538C21.3648 14.3528 18.98 14.1958 18.2139 14.1821V14.1826Z" fill="white"/>
<path fill-rule="evenodd" clip-rule="evenodd" d="M22.8398 8.87229C23.4669 8.85866 25.4327 8.7334 26.2446 7.66464C26.7429 7.00501 27.1628 6.39436 27.4535 5.95898C26.9277 6.0398 26.1849 6.16556 25.359 6.34032C24.026 6.62317 23.1077 8.31519 22.8404 8.87179L22.8398 8.87229Z" fill="white"/>
<path fill-rule="evenodd" clip-rule="evenodd" d="M17.7106 5.2406C18.061 4.9084 19.0945 3.82294 18.9699 2.80008C18.8869 2.17202 18.7903 1.61111 18.7161 1.21631C18.4623 1.53488 18.1119 1.98825 17.7475 2.51281C17.1479 3.36098 17.5585 4.79228 17.7106 5.2406Z" fill="white"/>
<path fill-rule="evenodd" clip-rule="evenodd" d="M9.98013 14.9997C9.61573 15.5023 8.40261 17.0064 7.03688 17.0554C6.1975 17.0867 5.44067 17.0776 4.91016 17.069C5.27456 16.6877 5.8004 16.1624 6.40929 15.5967C7.40595 14.6855 9.35722 14.9012 9.98013 14.9997Z" fill="white"/>
<path fill-rule="evenodd" clip-rule="evenodd" d="M22.9023 14.9997C23.2667 15.5023 24.4799 17.0064 25.8456 17.0554C26.6855 17.0867 27.4418 17.0776 27.977 17.069C27.6079 16.6877 27.0867 16.1624 26.4732 15.5967C25.4812 14.6855 23.5253 14.9012 22.9029 14.9997H22.9023Z" fill="white"/>
<path fill-rule="evenodd" clip-rule="evenodd" d="M15.1609 17.5828C15.7215 19.5972 15.5834 20.2076 14.1315 21.805C12.5 23.6089 10.2986 24.1829 7.8578 24.3848C6.58446 24.4883 5.52759 24.4565 4.46605 24.2324C3.75385 24.0799 2.6596 23.6058 1.92405 23.3352C1.81193 23.2938 2.46391 24.4328 2.56046 24.4671C4.34665 25.1012 6.05135 25.336 7.92632 25.1835C9.04756 25.0937 10.0546 24.9281 10.9646 24.6585C10.8727 24.8155 10.7808 24.9816 10.6889 25.1654C9.82048 26.8435 9.43687 27.931 9.12801 29.9005C9.09375 30.1201 10.1273 30.4079 10.3385 30.4796C10.5592 30.5377 10.0696 30.5558 10.1247 30.3403C10.1475 30.2418 9.95233 30.4347 9.88745 30.3867C9.58637 30.1661 10.4948 27.5418 10.5996 27.2353C11.6383 24.2157 12.1548 24.6888 14.0994 22.9798C14.6968 22.4547 15.2299 21.8221 15.7127 21.0593C15.7771 21.7232 15.8274 24.4469 15.8689 27.2015C15.8871 28.5475 15.8134 30.5452 15.8202 31.6499C15.8212 31.8533 16.0626 31.7261 16.2967 31.7307C16.5308 31.7261 16.8781 31.8468 16.8713 31.6438C16.8324 30.4574 16.8848 28.548 16.9035 27.202C16.945 24.4469 16.9954 21.7237 17.0644 21.0598C17.5472 21.8226 18.0803 22.4552 18.6731 22.9803C20.6218 24.6898 21.008 24.1243 22.0467 27.1439C22.4744 28.396 22.7049 29.0286 22.8243 30.1328C22.8564 30.4337 23.6688 30.0969 23.6315 29.8778C23.3704 28.3486 22.952 26.8435 22.0835 25.1659C21.9916 24.9816 21.8998 24.8155 21.812 24.659C22.7173 24.9281 23.7285 25.0942 24.8456 25.184C26.7206 25.3365 28.4014 25.0533 30.0407 24.5272C30.1092 24.505 30.7036 23.9724 30.5888 23.7659C30.4466 23.5059 31.07 23.1484 30.6818 23.317C29.8574 23.6745 29.6114 23.9648 28.3069 24.2329C27.2485 24.4505 26.1927 24.4888 24.9152 24.3853C22.4791 24.1834 20.2729 23.6094 18.6414 21.8055C17.1937 20.2081 17.0509 19.5977 17.6121 17.5833C18.0346 16.0712 14.7441 16.0712 15.1625 17.5833L15.1609 17.5828Z" fill="white"/>
<path fill-rule="evenodd" clip-rule="evenodd" d="M4.49727 19.0818C4.49727 19.0818 8.61211 28.1734 16.5475 27.9881C24.4828 27.8028 28.8707 18.9581 28.8707 18.9581L29.5637 18.8965C29.5637 18.8965 25.3861 28.7288 16.4219 28.7081C7.45765 28.6879 3.7207 19.0404 3.7207 19.0404" fill="white"/>
<path fill-rule="evenodd" clip-rule="evenodd" d="M10.09 20.5116C10.09 20.5116 12.3465 23.718 16.2246 23.718C20.1028 23.718 22.4537 20.2935 22.4537 20.2935L23.2531 20.3591C23.2531 20.3591 21.1845 24.5687 16.3191 24.547C11.4536 24.5253 8.98535 20.4904 8.98535 20.4904" fill="white"/>
</svg>
