<svg width="22" height="23" viewBox="0 0 22 23" fill="none" xmlns="http://www.w3.org/2000/svg">
<path d="M15.6401 14.4685L15.365 14.8157L15.6765 15.1307L21.3517 20.8685C21.422 20.9397 21.4705 21.0309 21.4902 21.1311C21.5099 21.2313 21.4998 21.3351 21.4612 21.4292C21.4227 21.5232 21.3578 21.6026 21.2757 21.6581C21.1936 21.7136 21.0977 21.7428 21 21.7428H20.9995C20.9348 21.7429 20.8706 21.73 20.8105 21.7049C20.7504 21.6797 20.6955 21.6426 20.649 21.5955L20.6485 21.595L14.9732 15.8571L14.6551 15.5354L14.3033 15.8199C12.8489 16.9963 11.0059 17.6987 9 17.6987C4.3108 17.6987 0.5 13.8537 0.5 9.09933C0.5 4.34493 4.3108 0.5 9 0.5C13.6894 0.5 17.5 4.34492 17.5 9.09933V9.10012C17.5031 11.0523 16.8465 12.9463 15.6401 14.4685ZM1.5 9.09933C1.5 13.279 4.8527 16.6766 9 16.6766C13.1476 16.6766 16.5 13.2789 16.5 9.09933C16.5 4.91972 13.1476 1.52207 9 1.52207C4.8527 1.52207 1.5 4.91971 1.5 9.09933Z" fill="black" stroke="white"/>
</svg>
