<svg width="139" height="136" viewBox="0 0 139 136" fill="none" xmlns="http://www.w3.org/2000/svg">
<path d="M139 110.197C136.295 111.418 136.464 113.797 136.388 116.167C136.352 117.306 135.886 118.436 135.592 119.566C135.393 120.333 135.154 121.092 134.927 121.853C134.025 124.86 131.858 126.739 129.195 128.027C126.105 129.523 123.006 131.097 119.75 132.118C116.209 133.226 112.505 133.884 108.831 134.457C105.838 134.923 102.785 135.072 99.7522 135.173C95.2159 135.325 90.6734 135.273 86.134 135.38C83.9974 135.429 81.87 135.736 79.7334 135.764C77.0612 135.797 74.386 135.59 71.7138 135.617C69.8193 135.636 67.9309 135.934 66.0365 135.986C64.363 136.032 62.6834 135.962 61.0129 135.843C57.6356 135.599 54.2703 135.191 50.89 135.033C47.4975 134.874 44.0839 135.103 40.7035 134.856C37.075 134.594 33.4586 134.058 29.8604 133.482C27.6573 133.129 25.3936 132.739 23.3509 131.892C21.0691 130.945 19.0626 129.343 16.8293 128.246C14.6897 127.199 13.5911 125.027 11.8056 123.797C10.123 122.639 9.64185 120.516 7.72319 119.648C7.22688 119.423 6.98478 117.997 7.08465 117.184C7.36004 114.961 6.664 112.978 5.82572 111.05C4.40034 107.772 4.27324 104.264 3.82232 100.816C3.49246 98.3182 3.60746 95.7231 2.98102 93.3108C2.30313 90.6975 2.6905 87.935 1.72814 85.4496C0.747629 82.9185 1.2621 80.3691 1.1592 77.8319C0.901969 71.4205 0.759734 65.006 0.520658 58.5945C0.396581 55.308 0.0334279 52.0246 0.00619138 48.7382C-0.0331502 44.0537 0.124216 39.3662 0.218031 34.6817C0.257372 32.7232 0.233162 30.7556 0.448028 28.8154C0.629604 27.2042 1.12289 25.6265 1.47696 24.0365C1.87038 22.27 2.29406 20.5064 2.64208 18.7307C3.23523 15.7093 4.40034 12.9101 6.0073 10.3181C6.42795 9.63892 7.29952 9.22469 8.00161 8.74954C9.21515 7.93021 10.4499 7.14439 11.6937 6.37075C12.2414 6.02962 12.8376 5.76463 13.3975 5.44177C16.7899 3.4894 20.5153 2.78277 24.3405 2.49341C28.6317 2.16751 32.929 1.92384 37.2233 1.61926C38.1221 1.5553 39.0088 1.33904 39.9076 1.25681C41.3935 1.11974 42.8794 1.01009 44.3684 0.924812C48.363 0.696375 52.3608 0.824299 56.3554 0.742062C61.5152 0.632412 66.675 0.410067 71.8348 0.282142C74.9912 0.202951 78.1507 0.202951 81.3071 0.175538C86.2883 0.132897 91.2696 0.0933009 96.2539 0.056751C99.3043 0.0354302 102.355 -0.0437613 105.402 0.0323843C106.84 0.0689343 108.268 0.56845 109.703 0.571496C112.181 0.577587 114.548 0.912628 116.842 1.88729C117.55 2.18883 118.376 2.26802 119.157 2.32894C122.452 2.58479 125.046 4.63767 127.703 6.16668C129.994 7.48857 131.598 10.0562 132.294 12.8645C132.775 14.8077 133.223 16.7631 133.607 18.7277C133.758 19.4983 133.662 20.3176 133.752 21.1034C134.264 25.465 134.86 29.8175 135.299 34.1852C135.541 36.5945 135.544 39.0251 135.641 41.4465C135.729 43.6669 135.841 45.8873 135.868 48.1077C135.91 51.9028 135.695 55.7101 135.959 59.4869C136.246 63.5866 135.438 67.7107 136.506 71.8103C137.024 73.8023 136.851 75.9679 137.072 78.0482C137.293 80.1407 137.69 82.2179 137.871 84.3135C138.05 86.3846 138.074 88.471 138.138 90.5513C138.183 92.0529 138.18 93.5545 138.201 95.0591C138.201 95.2541 138.28 95.4673 138.225 95.6409C137.317 98.5009 138.019 101.483 137.611 104.312C137.36 106.048 138.855 107.346 138.089 108.991C137.995 109.189 138.631 109.731 138.994 110.2L139 110.197ZM89.0332 127.007C91.8597 127.345 94.4381 127.878 97.0195 127.902C99.961 127.93 102.933 127.683 105.841 127.223C108.649 126.775 111.491 126.175 114.13 125.149C117.495 123.839 121.021 122.639 123.717 120.071C126.311 117.601 129.591 115.658 129.243 111.095C128.974 107.559 129.649 103.962 129.667 100.389C129.688 96.0551 129.458 91.7179 129.34 87.3837C129.252 84.149 129.177 80.9113 129.08 77.6766C128.953 73.4307 128.904 69.1787 128.644 64.9389C128.305 59.3955 127.812 53.8643 127.346 48.3301C126.992 44.1055 126.641 39.8809 126.172 35.6686C125.724 31.6542 125.085 27.658 124.595 23.6467C124.198 20.412 122.613 17.6464 121.366 14.7315C120.561 12.8523 119.487 11.372 117.426 10.9882C112.765 10.1232 108.087 9.34957 103.414 8.54242C102.161 8.32617 100.911 7.95458 99.6554 7.9424C96.4445 7.91194 93.2276 8.16779 90.0167 8.07641C85.9918 7.96067 81.9759 7.5373 77.9509 7.38806C74.153 7.24795 70.3459 7.22358 66.5449 7.26318C60.6043 7.32714 54.6607 7.6835 48.7262 7.53121C44.8919 7.43374 41.1756 8.448 37.299 8.0886C34.5905 7.83884 31.7851 8.61857 29.0282 8.98102C26.4558 9.31606 23.8956 9.74857 21.3202 10.0562C19.0536 10.3273 17.2318 11.1923 15.9789 13.23C15.6762 13.7203 14.8077 13.8391 14.2236 14.1711C13.6396 14.5001 12.8104 14.7529 12.5743 15.2676C11.9842 16.556 11.6543 17.9662 11.2518 19.3338C10.6526 21.3684 9.86882 23.3756 9.54804 25.4559C9.18186 27.8286 9.11528 30.2653 9.12739 32.6715C9.15765 38.9916 9.23936 45.3147 9.42093 51.6348C9.56317 56.5538 9.89001 61.4698 10.1291 66.3857C10.1715 67.2751 10.1382 68.1706 10.2108 69.0569C10.4347 71.789 10.7404 74.512 10.925 77.2471C11.2185 81.6209 10.5497 85.9948 11.2306 90.399C11.842 94.3616 11.845 98.4187 12.1627 102.43C12.42 105.692 12.6016 108.972 13.0858 112.204C13.5215 115.098 14.7109 117.729 17.4527 119.206C19.8555 120.504 22.2554 121.887 24.8095 122.801C27.8298 123.882 30.8379 125.051 34.1456 125.274C38.0979 125.542 42.0139 126.291 45.9632 126.678C49.2074 126.995 52.4697 127.196 55.726 127.257C60.6195 127.348 65.516 127.299 70.4095 127.247C71.5806 127.235 72.0104 126.632 71.7592 125.316C71.3658 123.248 71.1388 121.131 71.042 119.024C70.9209 116.416 70.9542 113.797 71.0147 111.187C71.1388 105.994 71.2659 100.797 71.5141 95.6104C71.626 93.253 71.0208 92.0773 69.199 92.0194C68.7601 92.0072 68.3153 92.1808 67.8734 92.26C65.4464 92.6956 63.0738 93.7007 60.792 93.1037C59.648 91.9433 60.5922 91.0326 60.6649 90.0579C60.8434 87.6426 60.7496 85.2059 60.8585 82.7814C61.0008 79.6838 60.3743 76.373 63.0526 73.8967C63.1918 73.7688 63.2402 73.5404 63.3371 73.3637C64.0543 72.054 64.9834 71.2042 66.6418 71.32C68.4484 71.4448 70.2733 71.3017 72.083 71.387C73.2088 71.4387 73.8534 70.8844 74.0894 69.9372C74.619 67.799 75.306 65.6425 75.4149 63.4678C75.6147 59.5753 76.3167 55.8989 78.7529 52.8013C80.2691 50.8733 81.7096 48.7717 83.8855 47.526C86.0281 46.2985 88.2494 45.1472 90.5554 44.2822C92.8796 43.4111 95.3066 42.7257 97.8911 43.3136C98.7263 43.5055 99.6493 43.3623 100.527 43.3136C101.42 43.2618 102.306 43.0791 103.196 43.0486C104.513 42.9999 105.832 43.0364 107.406 43.0364C107.969 44.4527 108.011 46.1797 107.817 47.928C107.769 48.3697 107.512 48.8022 107.533 49.2316C107.614 50.8307 107.79 52.4236 107.899 54.0227C108.008 55.6126 106.104 57.0807 104.54 57.1051C103.223 57.1264 101.919 57.7386 100.609 58.0919C99.7976 58.3112 98.9987 58.695 98.1816 58.7285C95.5972 58.8382 93.1005 59.2829 91.209 61.1652C89.4024 62.9592 88.9514 65.341 89.0362 67.8386C89.0604 68.5939 89.0725 69.3706 88.9303 70.1047C88.5429 72.0906 88.7729 72.3038 90.8126 72.2764C93.4818 72.2368 96.151 72.3342 98.8201 72.4134C99.0289 72.4195 99.4103 72.7545 99.4012 72.919C99.2922 75.0298 99.0289 77.1375 98.9987 79.2513C98.9624 81.7519 98.8716 84.2921 99.2559 86.741C99.5979 88.9248 98.6325 90.5848 96.4929 90.6335C94.2535 90.6853 92.014 90.8742 89.7776 91.0356C88.5913 91.1209 88.1344 91.9433 88.1192 93.0123C88.1011 94.2946 88.1949 95.5769 88.2161 96.8592C88.2251 97.3526 88.1283 97.8491 88.1495 98.3425C88.2252 99.9538 88.4007 101.565 88.4097 103.176C88.4188 104.632 88.1223 106.094 88.1979 107.541C88.3976 111.309 88.6428 115.07 88.6155 118.853C88.5974 121.561 88.8849 124.272 89.0362 127.004L89.0332 127.007Z" fill="#125F31"/>
</svg>
