<svg width="140" height="135" viewBox="0 0 140 135" fill="none" xmlns="http://www.w3.org/2000/svg">
<mask id="path-1-inside-1_395_7495" fill="white">
<path d="M140 109.387C137.275 110.599 137.446 112.96 137.37 115.313C137.333 116.443 136.864 117.565 136.568 118.687C136.367 119.449 136.126 120.201 135.897 120.957C134.989 123.941 132.807 125.807 130.124 127.086C127.012 128.57 123.891 130.133 120.611 131.146C117.045 132.247 113.314 132.9 109.614 133.468C106.599 133.931 103.524 134.079 100.47 134.179C95.9009 134.33 91.3257 134.279 86.7537 134.384C84.6017 134.433 82.459 134.738 80.307 134.765C77.6156 134.799 74.9211 134.593 72.2297 134.62C70.3216 134.638 68.4197 134.935 66.5116 134.986C64.826 135.031 63.1343 134.962 61.4518 134.844C58.0502 134.602 54.6608 134.197 51.2561 134.04C47.8392 133.882 44.401 134.109 40.9964 133.864C37.3418 133.604 33.6993 133.072 30.0752 132.501C27.8562 132.15 25.5763 131.763 23.5189 130.923C21.2206 129.982 19.1998 128.392 16.9503 127.303C14.7954 126.263 13.6889 124.108 11.8906 122.886C10.1959 121.737 9.71122 119.63 7.77876 118.768C7.27888 118.545 7.03503 117.13 7.13562 116.322C7.41299 114.115 6.71194 112.147 5.86763 110.233C4.432 106.98 4.30398 103.497 3.84982 100.074C3.51759 97.5952 3.63341 95.0193 3.00247 92.6247C2.3197 90.0306 2.70985 87.2884 1.74057 84.8212C0.753008 82.3088 1.27118 79.7782 1.16754 77.2596C0.908458 70.8953 0.7652 64.528 0.524404 58.1637C0.399434 54.9014 0.0336683 51.6421 0.00623592 48.3798C-0.0333887 43.7298 0.12511 39.0767 0.219599 34.4267C0.259224 32.4826 0.234839 30.5295 0.451251 28.6036C0.634134 27.0042 1.13097 25.438 1.48759 23.8598C1.88383 22.1062 2.31056 20.3556 2.66108 18.593C3.2585 15.5937 4.432 12.8152 6.05051 10.2423C6.47419 9.56805 7.35203 9.15686 8.05918 8.68521C9.28144 7.8719 10.525 7.09186 11.7778 6.32391C12.3295 5.98528 12.93 5.72224 13.4938 5.40176C16.9107 3.46374 20.6629 2.7623 24.5156 2.47508C28.8377 2.15157 33.1659 1.9097 37.4911 1.60735C38.3964 1.54386 39.2895 1.3292 40.1947 1.24757C41.6913 1.11151 43.1879 1.00267 44.6876 0.918011C48.711 0.691254 52.7375 0.818238 56.7609 0.736606C61.9578 0.627762 67.1547 0.407052 72.3516 0.280068C75.5308 0.201458 78.7129 0.201458 81.892 0.174247C86.9091 0.131919 91.9262 0.0926148 96.9463 0.0563337C100.019 0.0351696 103.091 -0.0434396 106.161 0.0321462C107.608 0.0684274 109.047 0.56427 110.492 0.567293C112.988 0.57334 115.372 0.905918 117.682 1.87342C118.395 2.17274 119.228 2.25134 120.014 2.31181C123.333 2.56578 125.945 4.60357 128.622 6.12134C130.929 7.43351 132.544 9.98226 133.246 12.7699C133.73 14.6988 134.181 16.6399 134.568 18.59C134.721 19.3549 134.623 20.1682 134.715 20.9482C135.23 25.2778 135.83 29.5983 136.272 33.9339C136.516 36.3254 136.519 38.7381 136.617 41.1417C136.705 43.3458 136.818 45.5499 136.845 47.754C136.888 51.5212 136.672 55.3005 136.937 59.0495C137.226 63.1191 136.412 67.2128 137.488 71.2823C138.01 73.2596 137.836 75.4093 138.058 77.4743C138.281 79.5514 138.68 81.6134 138.863 83.6935C139.043 85.7494 139.067 87.8205 139.131 89.8855C139.177 91.376 139.174 92.8666 139.195 94.3602C139.195 94.5537 139.275 94.7653 139.22 94.9376C138.305 97.7766 139.012 100.737 138.601 103.545C138.348 105.269 139.854 106.557 139.083 108.189C138.988 108.386 139.628 108.924 139.994 109.39L140 109.387ZM89.6737 126.073C92.5206 126.409 95.1175 126.938 97.7175 126.962C100.68 126.989 103.673 126.744 106.603 126.288C109.431 125.843 112.293 125.248 114.951 124.229C118.341 122.929 121.892 121.737 124.607 119.189C127.22 116.737 130.524 114.808 130.173 110.279C129.902 106.768 130.582 103.198 130.6 99.6512C130.621 95.3488 130.389 91.0435 130.271 86.7411C130.182 83.5302 130.106 80.3163 130.008 77.1054C129.88 72.8908 129.832 68.6701 129.57 64.4615C129.228 58.9588 128.731 53.4683 128.262 47.9747C127.905 43.7812 127.552 39.5877 127.079 35.4063C126.628 31.4214 125.985 27.4547 125.491 23.4728C125.092 20.2619 123.495 17.5166 122.239 14.6232C121.428 12.7578 120.346 11.2884 118.27 10.9074C113.576 10.0488 108.864 9.28082 104.158 8.47961C102.896 8.26495 101.637 7.89609 100.372 7.884C97.1384 7.85376 93.8983 8.10773 90.6643 8.01703C86.6104 7.90214 82.5656 7.48188 78.5117 7.33373C74.6864 7.19465 70.852 7.17047 67.0237 7.20977C61.0403 7.27326 55.054 7.62701 49.0767 7.47583C45.2149 7.37908 41.4719 8.38589 37.5673 8.02912C34.8393 7.7812 32.0138 8.5552 29.237 8.91499C26.6462 9.24756 24.0675 9.67689 21.4736 9.98226C19.1906 10.2513 17.3557 11.11 16.0938 13.1327C15.789 13.6194 14.9142 13.7374 14.326 14.0669C13.7377 14.3934 12.9025 14.6444 12.6648 15.1553C12.0704 16.4343 11.7382 17.8341 11.3328 19.1916C10.7293 21.2113 9.93982 23.2037 9.61673 25.2687C9.24792 27.624 9.18086 30.0427 9.19305 32.4312C9.22353 38.7049 9.30583 44.9815 9.48871 51.2551C9.63197 56.138 9.96116 61.0178 10.202 65.8976C10.2446 66.7804 10.2111 67.6693 10.2843 68.5491C10.5098 71.2612 10.8177 73.9641 11.0036 76.6791C11.2993 81.0208 10.6256 85.3624 11.3114 89.7343C11.9271 93.6678 11.9302 97.695 12.2502 101.677C12.5093 104.915 12.6922 108.171 13.1799 111.379C13.6188 114.251 14.8167 116.864 17.5782 118.33C19.9984 119.618 22.4155 120.991 24.988 121.898C28.03 122.971 31.0597 124.132 34.3913 124.353C38.372 124.619 42.3162 125.362 46.2939 125.746C49.5614 126.061 52.8472 126.26 56.1269 126.321C61.0556 126.412 65.9873 126.363 70.916 126.312C72.0956 126.3 72.5284 125.701 72.2754 124.395C71.8792 122.342 71.6506 120.241 71.553 118.149C71.4311 115.56 71.4647 112.96 71.5256 110.369C71.6506 105.214 71.7786 100.056 72.0285 94.9074C72.1413 92.5673 71.5317 91.4002 69.6968 91.3428C69.2548 91.3307 68.8068 91.503 68.3617 91.5816C65.9172 92.014 63.5275 93.0117 61.2293 92.4191C60.0772 91.2672 61.0281 90.3632 61.1013 89.3957C61.2811 86.9981 61.1866 84.5794 61.2964 82.1727C61.4396 79.0979 60.8087 75.8114 63.5062 73.3534C63.6464 73.2264 63.6952 72.9996 63.7927 72.8243C64.5151 71.5242 65.4509 70.6807 67.1212 70.7955C68.9409 70.9195 70.7788 70.7774 72.6016 70.8621C73.7355 70.9135 74.3847 70.3632 74.6224 69.4229C75.1558 67.3005 75.8477 65.1599 75.9575 63.0011C76.1587 59.1372 76.8658 55.4879 79.3195 52.4131C80.8465 50.4993 82.2974 48.4131 84.489 47.1765C86.647 45.9581 88.8842 44.8152 91.2068 43.9566C93.5478 43.0919 95.9923 42.4116 98.5953 42.9951C99.4366 43.1856 100.366 43.0435 101.25 42.9951C102.149 42.9437 103.042 42.7623 103.939 42.7321C105.264 42.6837 106.593 42.72 108.178 42.72C108.745 44.1259 108.788 45.8401 108.593 47.5756C108.544 48.014 108.285 48.4433 108.306 48.8696C108.389 50.4569 108.565 52.0382 108.675 53.6255C108.785 55.2037 106.868 56.661 105.292 56.6852C103.966 56.7064 102.652 57.3141 101.332 57.6648C100.516 57.8825 99.7109 58.2634 98.8879 58.2967C96.2849 58.4055 93.7703 58.8469 91.8652 60.7154C90.0455 62.4962 89.5914 64.8605 89.6767 67.3398C89.7011 68.0896 89.7133 68.8605 89.57 69.5892C89.1799 71.5605 89.4115 71.7721 91.4659 71.7449C94.1543 71.7056 96.8427 71.8024 99.5311 71.881C99.7414 71.887 100.125 72.2196 100.116 72.3828C100.007 74.4781 99.7414 76.5703 99.7109 78.6686C99.6743 81.1508 99.5829 83.6723 99.97 86.1032C100.314 88.271 99.3421 89.9187 97.1871 89.9671C94.9316 90.0185 92.676 90.206 90.4235 90.3662C89.2287 90.4509 88.7684 91.2672 88.7532 92.3284C88.7349 93.6013 88.8294 94.8741 88.8507 96.147C88.8599 96.6368 88.7623 97.1296 88.7837 97.6194C88.8599 99.2188 89.0366 100.818 89.0458 102.418C89.0549 103.863 88.7562 105.314 88.8324 106.75C89.0336 110.49 89.2805 114.224 89.2531 117.979C89.2348 120.667 89.5243 123.358 89.6767 126.07L89.6737 126.073Z"/>
</mask>
<path d="M140 109.387C137.275 110.599 137.446 112.96 137.37 115.313C137.333 116.443 136.864 117.565 136.568 118.687C136.367 119.449 136.126 120.201 135.897 120.957C134.989 123.941 132.807 125.807 130.124 127.086C127.012 128.57 123.891 130.133 120.611 131.146C117.045 132.247 113.314 132.9 109.614 133.468C106.599 133.931 103.524 134.079 100.47 134.179C95.9009 134.33 91.3257 134.279 86.7537 134.384C84.6017 134.433 82.459 134.738 80.307 134.765C77.6156 134.799 74.9211 134.593 72.2297 134.62C70.3216 134.638 68.4197 134.935 66.5116 134.986C64.826 135.031 63.1343 134.962 61.4518 134.844C58.0502 134.602 54.6608 134.197 51.2561 134.04C47.8392 133.882 44.401 134.109 40.9964 133.864C37.3418 133.604 33.6993 133.072 30.0752 132.501C27.8562 132.15 25.5763 131.763 23.5189 130.923C21.2206 129.982 19.1998 128.392 16.9503 127.303C14.7954 126.263 13.6889 124.108 11.8906 122.886C10.1959 121.737 9.71122 119.63 7.77876 118.768C7.27888 118.545 7.03503 117.13 7.13562 116.322C7.41299 114.115 6.71194 112.147 5.86763 110.233C4.432 106.98 4.30398 103.497 3.84982 100.074C3.51759 97.5952 3.63341 95.0193 3.00247 92.6247C2.3197 90.0306 2.70985 87.2884 1.74057 84.8212C0.753008 82.3088 1.27118 79.7782 1.16754 77.2596C0.908458 70.8953 0.7652 64.528 0.524404 58.1637C0.399434 54.9014 0.0336683 51.6421 0.00623592 48.3798C-0.0333887 43.7298 0.12511 39.0767 0.219599 34.4267C0.259224 32.4826 0.234839 30.5295 0.451251 28.6036C0.634134 27.0042 1.13097 25.438 1.48759 23.8598C1.88383 22.1062 2.31056 20.3556 2.66108 18.593C3.2585 15.5937 4.432 12.8152 6.05051 10.2423C6.47419 9.56805 7.35203 9.15686 8.05918 8.68521C9.28144 7.8719 10.525 7.09186 11.7778 6.32391C12.3295 5.98528 12.93 5.72224 13.4938 5.40176C16.9107 3.46374 20.6629 2.7623 24.5156 2.47508C28.8377 2.15157 33.1659 1.9097 37.4911 1.60735C38.3964 1.54386 39.2895 1.3292 40.1947 1.24757C41.6913 1.11151 43.1879 1.00267 44.6876 0.918011C48.711 0.691254 52.7375 0.818238 56.7609 0.736606C61.9578 0.627762 67.1547 0.407052 72.3516 0.280068C75.5308 0.201458 78.7129 0.201458 81.892 0.174247C86.9091 0.131919 91.9262 0.0926148 96.9463 0.0563337C100.019 0.0351696 103.091 -0.0434396 106.161 0.0321462C107.608 0.0684274 109.047 0.56427 110.492 0.567293C112.988 0.57334 115.372 0.905918 117.682 1.87342C118.395 2.17274 119.228 2.25134 120.014 2.31181C123.333 2.56578 125.945 4.60357 128.622 6.12134C130.929 7.43351 132.544 9.98226 133.246 12.7699C133.73 14.6988 134.181 16.6399 134.568 18.59C134.721 19.3549 134.623 20.1682 134.715 20.9482C135.23 25.2778 135.83 29.5983 136.272 33.9339C136.516 36.3254 136.519 38.7381 136.617 41.1417C136.705 43.3458 136.818 45.5499 136.845 47.754C136.888 51.5212 136.672 55.3005 136.937 59.0495C137.226 63.1191 136.412 67.2128 137.488 71.2823C138.01 73.2596 137.836 75.4093 138.058 77.4743C138.281 79.5514 138.68 81.6134 138.863 83.6935C139.043 85.7494 139.067 87.8205 139.131 89.8855C139.177 91.376 139.174 92.8666 139.195 94.3602C139.195 94.5537 139.275 94.7653 139.22 94.9376C138.305 97.7766 139.012 100.737 138.601 103.545C138.348 105.269 139.854 106.557 139.083 108.189C138.988 108.386 139.628 108.924 139.994 109.39L140 109.387ZM89.6737 126.073C92.5206 126.409 95.1175 126.938 97.7175 126.962C100.68 126.989 103.673 126.744 106.603 126.288C109.431 125.843 112.293 125.248 114.951 124.229C118.341 122.929 121.892 121.737 124.607 119.189C127.22 116.737 130.524 114.808 130.173 110.279C129.902 106.768 130.582 103.198 130.6 99.6512C130.621 95.3488 130.389 91.0435 130.271 86.7411C130.182 83.5302 130.106 80.3163 130.008 77.1054C129.88 72.8908 129.832 68.6701 129.57 64.4615C129.228 58.9588 128.731 53.4683 128.262 47.9747C127.905 43.7812 127.552 39.5877 127.079 35.4063C126.628 31.4214 125.985 27.4547 125.491 23.4728C125.092 20.2619 123.495 17.5166 122.239 14.6232C121.428 12.7578 120.346 11.2884 118.27 10.9074C113.576 10.0488 108.864 9.28082 104.158 8.47961C102.896 8.26495 101.637 7.89609 100.372 7.884C97.1384 7.85376 93.8983 8.10773 90.6643 8.01703C86.6104 7.90214 82.5656 7.48188 78.5117 7.33373C74.6864 7.19465 70.852 7.17047 67.0237 7.20977C61.0403 7.27326 55.054 7.62701 49.0767 7.47583C45.2149 7.37908 41.4719 8.38589 37.5673 8.02912C34.8393 7.7812 32.0138 8.5552 29.237 8.91499C26.6462 9.24756 24.0675 9.67689 21.4736 9.98226C19.1906 10.2513 17.3557 11.11 16.0938 13.1327C15.789 13.6194 14.9142 13.7374 14.326 14.0669C13.7377 14.3934 12.9025 14.6444 12.6648 15.1553C12.0704 16.4343 11.7382 17.8341 11.3328 19.1916C10.7293 21.2113 9.93982 23.2037 9.61673 25.2687C9.24792 27.624 9.18086 30.0427 9.19305 32.4312C9.22353 38.7049 9.30583 44.9815 9.48871 51.2551C9.63197 56.138 9.96116 61.0178 10.202 65.8976C10.2446 66.7804 10.2111 67.6693 10.2843 68.5491C10.5098 71.2612 10.8177 73.9641 11.0036 76.6791C11.2993 81.0208 10.6256 85.3624 11.3114 89.7343C11.9271 93.6678 11.9302 97.695 12.2502 101.677C12.5093 104.915 12.6922 108.171 13.1799 111.379C13.6188 114.251 14.8167 116.864 17.5782 118.33C19.9984 119.618 22.4155 120.991 24.988 121.898C28.03 122.971 31.0597 124.132 34.3913 124.353C38.372 124.619 42.3162 125.362 46.2939 125.746C49.5614 126.061 52.8472 126.26 56.1269 126.321C61.0556 126.412 65.9873 126.363 70.916 126.312C72.0956 126.3 72.5284 125.701 72.2754 124.395C71.8792 122.342 71.6506 120.241 71.553 118.149C71.4311 115.56 71.4647 112.96 71.5256 110.369C71.6506 105.214 71.7786 100.056 72.0285 94.9074C72.1413 92.5673 71.5317 91.4002 69.6968 91.3428C69.2548 91.3307 68.8068 91.503 68.3617 91.5816C65.9172 92.014 63.5275 93.0117 61.2293 92.4191C60.0772 91.2672 61.0281 90.3632 61.1013 89.3957C61.2811 86.9981 61.1866 84.5794 61.2964 82.1727C61.4396 79.0979 60.8087 75.8114 63.5062 73.3534C63.6464 73.2264 63.6952 72.9996 63.7927 72.8243C64.5151 71.5242 65.4509 70.6807 67.1212 70.7955C68.9409 70.9195 70.7788 70.7774 72.6016 70.8621C73.7355 70.9135 74.3847 70.3632 74.6224 69.4229C75.1558 67.3005 75.8477 65.1599 75.9575 63.0011C76.1587 59.1372 76.8658 55.4879 79.3195 52.4131C80.8465 50.4993 82.2974 48.4131 84.489 47.1765C86.647 45.9581 88.8842 44.8152 91.2068 43.9566C93.5478 43.0919 95.9923 42.4116 98.5953 42.9951C99.4366 43.1856 100.366 43.0435 101.25 42.9951C102.149 42.9437 103.042 42.7623 103.939 42.7321C105.264 42.6837 106.593 42.72 108.178 42.72C108.745 44.1259 108.788 45.8401 108.593 47.5756C108.544 48.014 108.285 48.4433 108.306 48.8696C108.389 50.4569 108.565 52.0382 108.675 53.6255C108.785 55.2037 106.868 56.661 105.292 56.6852C103.966 56.7064 102.652 57.3141 101.332 57.6648C100.516 57.8825 99.7109 58.2634 98.8879 58.2967C96.2849 58.4055 93.7703 58.8469 91.8652 60.7154C90.0455 62.4962 89.5914 64.8605 89.6767 67.3398C89.7011 68.0896 89.7133 68.8605 89.57 69.5892C89.1799 71.5605 89.4115 71.7721 91.4659 71.7449C94.1543 71.7056 96.8427 71.8024 99.5311 71.881C99.7414 71.887 100.125 72.2196 100.116 72.3828C100.007 74.4781 99.7414 76.5703 99.7109 78.6686C99.6743 81.1508 99.5829 83.6723 99.97 86.1032C100.314 88.271 99.3421 89.9187 97.1871 89.9671C94.9316 90.0185 92.676 90.206 90.4235 90.3662C89.2287 90.4509 88.7684 91.2672 88.7532 92.3284C88.7349 93.6013 88.8294 94.8741 88.8507 96.147C88.8599 96.6368 88.7623 97.1296 88.7837 97.6194C88.8599 99.2188 89.0366 100.818 89.0458 102.418C89.0549 103.863 88.7562 105.314 88.8324 106.75C89.0336 110.49 89.2805 114.224 89.2531 117.979C89.2348 120.667 89.5243 123.358 89.6767 126.07L89.6737 126.073Z" fill="white" stroke="white" stroke-width="2" mask="url(#path-1-inside-1_395_7495)"/>
</svg>
