<svg width="139" height="133" viewBox="0 0 139 133" fill="none" xmlns="http://www.w3.org/2000/svg">
<mask id="path-1-inside-1_395_7496" fill="white">
<path d="M1.36643 89.9103C1.14559 83.806 1.01371 78.749 0.762199 73.6981C0.599639 70.3989 0.142633 67.115 0.0383497 63.8158C-0.0690007 60.4856 0.0751556 57.1462 0.151835 53.8129C0.222379 50.733 0.311327 47.65 0.461617 44.5731C0.710057 39.5439 1.01371 34.5209 1.29588 29.4916C1.45538 26.6218 1.49218 23.7365 1.80503 20.882C2.30191 16.3378 3.67906 12.0253 6.26161 8.24719C7.63876 6.23303 9.3717 4.42585 11.8806 3.71224C12.169 3.62883 12.5769 3.52689 12.6842 3.31064C13.5829 1.47257 15.3097 1.93286 16.8126 1.71353C20.5239 1.16674 24.2106 0.428417 27.9372 0.0546232C29.9769 -0.149264 32.0717 0.280135 34.1451 0.323384C36.9638 0.382079 39.7887 0.335741 42.6074 0.345008C43.2055 0.345008 43.8036 0.419149 44.4048 0.434595C47.7817 0.508736 51.1586 0.57052 54.5386 0.64775C56.1182 0.684821 57.6947 0.796032 59.2743 0.783675C62.9611 0.755872 66.6508 0.551985 70.3345 0.653929C73.874 0.752783 77.4074 1.14511 80.9438 1.41078C81.2505 1.43241 81.5634 1.51891 81.8578 1.47566C87.0689 0.694088 92.2616 1.99155 97.4758 1.58378C101.27 1.28722 105.082 1.15747 108.889 1.08951C110.87 1.05244 112.851 1.34282 114.836 1.42005C118.881 1.58069 122.614 3.0357 126.31 4.43511C129.788 5.75111 132.831 7.55521 135.266 10.8576C138.113 14.7191 137.858 18.7258 137.962 22.9363C138.027 25.488 138.428 28.0274 138.56 30.579C138.637 32.102 138.45 33.6373 138.444 35.1665C138.431 38.163 138.444 41.1626 138.481 44.1592C138.502 46.1023 138.628 48.0485 138.619 49.9916C138.603 53.8747 138.594 57.7578 138.459 61.6379C138.37 64.1556 138.539 66.6053 138.959 69.1045C139.201 70.5533 138.297 72.1628 138.131 73.7259C137.824 76.6267 137.726 79.5491 137.465 82.4591C137.076 86.8489 136.64 91.2324 136.186 95.616C135.846 98.9091 135.536 102.211 135.027 105.48C134.779 107.071 134.254 108.662 133.598 110.135C132.04 113.638 130.405 117.114 128.635 120.512C128.117 121.507 127.003 122.174 126.221 123.045C125.329 124.043 124.596 125.204 123.62 126.1C122.669 126.978 121.565 127.747 120.409 128.321C118.544 129.251 116.606 130.048 114.652 130.774C113.581 131.173 112.416 131.309 111.29 131.559C110.941 131.636 110.551 131.624 110.244 131.781C107.815 133.045 105.202 132.847 102.604 132.825C98.7824 132.795 94.9576 132.782 91.1359 132.81C86.4984 132.844 81.8547 133.134 77.2295 132.924C73.3924 132.751 69.5309 132.748 65.7092 132.035C63.8505 131.689 61.7373 132.449 59.9736 131.917C56.1826 130.774 52.3395 131.528 48.5393 131.046C44.6133 130.549 40.6015 130.79 36.6479 130.465C32.6729 130.141 28.6488 130.058 24.8302 128.556C23.4898 128.028 21.9685 127.969 20.53 127.685C17.2236 127.033 14.4877 125.316 12.1321 122.971C8.41782 119.273 4.74643 115.486 3.28033 110.253C2.74051 108.322 2.81413 106.215 2.6301 104.189C2.17002 99.0759 1.71915 93.9633 1.36029 89.8979L1.36643 89.9103ZM36.2277 8.36767C36.2185 8.3028 36.2093 8.23483 36.2032 8.16996C33.8599 8.52831 31.5258 9.08436 29.1702 9.20175C25.4129 9.38711 21.8765 10.354 18.4167 11.7009C14.8006 13.1096 12.6628 15.8126 12.0647 19.6494C11.7886 21.4165 11.8316 23.2329 11.6966 25.0246C11.442 28.4722 11.1875 31.9228 10.8899 35.3673C10.5955 38.7809 10.1232 42.1852 9.94833 45.6018C9.62935 51.8945 9.46372 58.1934 9.25209 64.4892C9.1018 68.9191 9.20608 73.3738 8.78588 77.7759C8.35034 82.3603 8.9423 86.855 9.63855 91.2942C10.5924 97.3552 11.5586 103.435 13.3467 109.351C14.3926 112.811 16.7267 115.155 19.1314 117.534C19.7326 118.13 20.3245 118.94 21.0637 119.162C23.6616 119.94 26.2963 120.676 28.9678 121.108C31.7681 121.562 34.6297 121.627 37.4607 121.902C39.6476 122.115 41.8283 122.424 44.0152 122.643C47.794 123.02 51.5727 123.394 55.3576 123.712C59.2835 124.043 63.2126 124.33 67.1447 124.571C67.982 124.624 68.8408 124.278 69.6812 124.312C71.227 124.373 72.7637 124.664 74.3095 124.71C78.1404 124.828 81.9713 124.852 85.8022 124.926C87.0382 124.951 88.2712 125.075 89.5042 125.065C91.3292 125.05 93.1511 124.895 94.976 124.905C97.2335 124.917 99.4878 125.047 101.742 125.109C102.923 125.14 104.116 125.041 105.288 125.161C106.401 125.275 107.303 124.636 108.521 124.735C111.891 125.013 115.008 123.759 117.581 121.513C120.507 118.958 122.016 115.477 123.332 111.912C124.007 110.089 124.654 108.254 125.224 106.394C125.672 104.93 126.154 103.441 126.319 101.927C126.911 96.4872 127.402 91.0378 127.88 85.5885C128.08 83.3117 128.23 81.0257 128.252 78.7397C128.27 76.673 128.022 74.6033 128.006 72.5335C127.991 70.3155 128.157 68.1005 128.16 65.8824C128.16 63.5316 127.985 61.1776 128.034 58.8267C128.086 56.3368 128.331 53.8531 128.454 51.3632C128.598 48.5088 128.69 45.6513 128.825 42.7968C128.92 40.7981 129.224 38.7901 129.132 36.8038C128.96 33.0133 128.61 29.2291 128.258 25.451C128.055 23.2947 127.736 21.1631 125.896 19.6247C125.418 19.2231 125.227 18.4879 124.859 17.9349C124.525 17.4314 124.231 16.7765 123.746 16.517C121.801 15.4852 120.197 13.746 117.811 13.5761C117.339 13.5421 116.888 13.1806 116.425 12.9737C113.094 11.4754 109.769 9.99877 106.033 9.8165C102.935 9.66513 99.8405 9.44889 96.755 9.16468C93.0897 8.82487 89.4459 8.20394 85.7746 8.02477C80.0144 7.74674 74.239 7.77454 68.4727 7.60772C64.513 7.49342 60.5472 7.05785 56.6243 8.02168C56.4341 8.06802 56.2194 8.01241 56.0139 8.00623C52.4867 7.91047 48.9564 7.70349 45.4292 7.7591C42.359 7.80543 39.2949 8.14833 36.2247 8.3584L36.2277 8.36767Z"/>
<path d="M61.6969 93.1203C61.7245 93.5033 61.7583 93.9389 61.8104 94.6772C61.2522 94.2911 60.8719 94.013 60.4762 93.7566C59.9303 93.3983 59.4671 93.1573 58.685 93.1017C57.8293 93.043 57.0379 91.7765 56.2497 91.0042C55.9798 90.7416 55.8693 90.2906 55.5749 90.0805C54.2652 89.1537 53.02 87.9706 51.5539 87.4701C49.5479 86.7843 48.5235 85.1594 47.4899 83.6889C46.3888 82.1196 45.8029 80.1549 45.1435 78.3075C44.3123 75.9845 43.5762 73.6212 42.9075 71.2425C42.2113 68.7773 42.4321 66.3214 43.2143 63.8902C43.4934 63.0222 43.5118 62.0614 43.843 61.2181C45.119 57.9713 46.4378 54.7431 47.8181 51.5396C48.4806 50.0073 49.2995 48.54 50.0786 47.0602C50.2534 46.7266 50.5018 46.3683 50.8085 46.1736C54.348 43.934 57.8047 41.5244 61.5098 39.606C63.0557 38.8059 65.1506 38.8553 66.9847 38.9047C69.6071 38.9758 72.2204 39.4052 74.8397 39.6801C74.8888 39.6863 74.9501 39.6678 74.99 39.6863C76.9254 40.681 78.873 41.648 80.7839 42.689C82.0168 43.3594 83.1241 44.317 84.4092 44.8329C86.9795 45.8647 88.4456 48.1137 90.3656 49.8714C93.0463 52.3242 94.129 55.6081 95.1167 58.9104C96.0276 61.9502 95.7577 64.9962 95.3804 68.1842C95.0369 71.0788 94.1229 73.6984 93.307 76.3799C92.85 77.8874 91.9023 79.3146 90.9239 80.5812C89.1388 82.8981 87.4028 85.3447 85.222 87.2415C80.7102 91.171 75.3795 93.2562 69.3004 93.1203C66.7915 93.0647 64.2795 93.111 61.6908 93.111L61.6969 93.1203ZM86.9366 67.1092C86.6513 62.2684 86.3293 58.4409 83.9154 55.2188C83.0413 54.0542 82.0966 52.7351 80.8697 52.0895C78.7258 50.9619 76.6033 49.8591 73.9993 49.4976C71.6805 49.1763 69.3894 48.1384 66.9356 47.8294C64.4267 47.5144 62.0589 47.5978 59.6665 48.4318C56.7834 49.4389 54.8725 51.3017 54.0781 54.2951C53.8665 55.0891 53.7346 55.9355 53.3604 56.646C51.5017 60.1955 50.5693 63.9273 51.06 67.9402C51.1919 69.0214 51.4434 70.1057 51.79 71.1375C52.1182 72.1075 52.9862 73.0034 53.0046 73.9456C53.0414 75.6786 53.4831 76.9854 54.8173 78.15C56.4061 79.5401 57.5808 81.5234 59.3352 82.5799C61.7951 84.0596 64.5893 85.0142 67.3068 86.0089C68.5582 86.4661 70.0703 86.914 71.2787 86.6144C73.5086 86.0553 75.6556 85.0513 77.7412 84.0318C80.0447 82.9043 82.0935 81.4338 83.1057 78.8605C84.0442 76.4695 85.5502 74.3286 85.9152 71.6812C86.1698 69.8369 86.728 68.0328 86.9427 67.1123L86.9366 67.1092Z"/>
<path d="M99.4168 32.2259C99.6837 28.3736 100.671 26.5881 103.72 25.4327C104.981 24.9539 107.149 25.8837 108.284 26.8661C109.854 28.2254 109.802 29.6587 109.253 31.4474C108.422 34.169 107.217 36.4704 104.245 37.2242C103.702 37.3601 102.91 37.357 102.509 37.0512C100.825 35.763 98.9567 34.5057 99.4138 32.2259H99.4168Z"/>
</mask>
<path d="M1.36643 89.9103C1.14559 83.806 1.01371 78.749 0.762199 73.6981C0.599639 70.3989 0.142633 67.115 0.0383497 63.8158C-0.0690007 60.4856 0.0751556 57.1462 0.151835 53.8129C0.222379 50.733 0.311327 47.65 0.461617 44.5731C0.710057 39.5439 1.01371 34.5209 1.29588 29.4916C1.45538 26.6218 1.49218 23.7365 1.80503 20.882C2.30191 16.3378 3.67906 12.0253 6.26161 8.24719C7.63876 6.23303 9.3717 4.42585 11.8806 3.71224C12.169 3.62883 12.5769 3.52689 12.6842 3.31064C13.5829 1.47257 15.3097 1.93286 16.8126 1.71353C20.5239 1.16674 24.2106 0.428417 27.9372 0.0546232C29.9769 -0.149264 32.0717 0.280135 34.1451 0.323384C36.9638 0.382079 39.7887 0.335741 42.6074 0.345008C43.2055 0.345008 43.8036 0.419149 44.4048 0.434595C47.7817 0.508736 51.1586 0.57052 54.5386 0.64775C56.1182 0.684821 57.6947 0.796032 59.2743 0.783675C62.9611 0.755872 66.6508 0.551985 70.3345 0.653929C73.874 0.752783 77.4074 1.14511 80.9438 1.41078C81.2505 1.43241 81.5634 1.51891 81.8578 1.47566C87.0689 0.694088 92.2616 1.99155 97.4758 1.58378C101.27 1.28722 105.082 1.15747 108.889 1.08951C110.87 1.05244 112.851 1.34282 114.836 1.42005C118.881 1.58069 122.614 3.0357 126.31 4.43511C129.788 5.75111 132.831 7.55521 135.266 10.8576C138.113 14.7191 137.858 18.7258 137.962 22.9363C138.027 25.488 138.428 28.0274 138.56 30.579C138.637 32.102 138.45 33.6373 138.444 35.1665C138.431 38.163 138.444 41.1626 138.481 44.1592C138.502 46.1023 138.628 48.0485 138.619 49.9916C138.603 53.8747 138.594 57.7578 138.459 61.6379C138.37 64.1556 138.539 66.6053 138.959 69.1045C139.201 70.5533 138.297 72.1628 138.131 73.7259C137.824 76.6267 137.726 79.5491 137.465 82.4591C137.076 86.8489 136.64 91.2324 136.186 95.616C135.846 98.9091 135.536 102.211 135.027 105.48C134.779 107.071 134.254 108.662 133.598 110.135C132.04 113.638 130.405 117.114 128.635 120.512C128.117 121.507 127.003 122.174 126.221 123.045C125.329 124.043 124.596 125.204 123.62 126.1C122.669 126.978 121.565 127.747 120.409 128.321C118.544 129.251 116.606 130.048 114.652 130.774C113.581 131.173 112.416 131.309 111.29 131.559C110.941 131.636 110.551 131.624 110.244 131.781C107.815 133.045 105.202 132.847 102.604 132.825C98.7824 132.795 94.9576 132.782 91.1359 132.81C86.4984 132.844 81.8547 133.134 77.2295 132.924C73.3924 132.751 69.5309 132.748 65.7092 132.035C63.8505 131.689 61.7373 132.449 59.9736 131.917C56.1826 130.774 52.3395 131.528 48.5393 131.046C44.6133 130.549 40.6015 130.79 36.6479 130.465C32.6729 130.141 28.6488 130.058 24.8302 128.556C23.4898 128.028 21.9685 127.969 20.53 127.685C17.2236 127.033 14.4877 125.316 12.1321 122.971C8.41782 119.273 4.74643 115.486 3.28033 110.253C2.74051 108.322 2.81413 106.215 2.6301 104.189C2.17002 99.0759 1.71915 93.9633 1.36029 89.8979L1.36643 89.9103ZM36.2277 8.36767C36.2185 8.3028 36.2093 8.23483 36.2032 8.16996C33.8599 8.52831 31.5258 9.08436 29.1702 9.20175C25.4129 9.38711 21.8765 10.354 18.4167 11.7009C14.8006 13.1096 12.6628 15.8126 12.0647 19.6494C11.7886 21.4165 11.8316 23.2329 11.6966 25.0246C11.442 28.4722 11.1875 31.9228 10.8899 35.3673C10.5955 38.7809 10.1232 42.1852 9.94833 45.6018C9.62935 51.8945 9.46372 58.1934 9.25209 64.4892C9.1018 68.9191 9.20608 73.3738 8.78588 77.7759C8.35034 82.3603 8.9423 86.855 9.63855 91.2942C10.5924 97.3552 11.5586 103.435 13.3467 109.351C14.3926 112.811 16.7267 115.155 19.1314 117.534C19.7326 118.13 20.3245 118.94 21.0637 119.162C23.6616 119.94 26.2963 120.676 28.9678 121.108C31.7681 121.562 34.6297 121.627 37.4607 121.902C39.6476 122.115 41.8283 122.424 44.0152 122.643C47.794 123.02 51.5727 123.394 55.3576 123.712C59.2835 124.043 63.2126 124.33 67.1447 124.571C67.982 124.624 68.8408 124.278 69.6812 124.312C71.227 124.373 72.7637 124.664 74.3095 124.71C78.1404 124.828 81.9713 124.852 85.8022 124.926C87.0382 124.951 88.2712 125.075 89.5042 125.065C91.3292 125.05 93.1511 124.895 94.976 124.905C97.2335 124.917 99.4878 125.047 101.742 125.109C102.923 125.14 104.116 125.041 105.288 125.161C106.401 125.275 107.303 124.636 108.521 124.735C111.891 125.013 115.008 123.759 117.581 121.513C120.507 118.958 122.016 115.477 123.332 111.912C124.007 110.089 124.654 108.254 125.224 106.394C125.672 104.93 126.154 103.441 126.319 101.927C126.911 96.4872 127.402 91.0378 127.88 85.5885C128.08 83.3117 128.23 81.0257 128.252 78.7397C128.27 76.673 128.022 74.6033 128.006 72.5335C127.991 70.3155 128.157 68.1005 128.16 65.8824C128.16 63.5316 127.985 61.1776 128.034 58.8267C128.086 56.3368 128.331 53.8531 128.454 51.3632C128.598 48.5088 128.69 45.6513 128.825 42.7968C128.92 40.7981 129.224 38.7901 129.132 36.8038C128.96 33.0133 128.61 29.2291 128.258 25.451C128.055 23.2947 127.736 21.1631 125.896 19.6247C125.418 19.2231 125.227 18.4879 124.859 17.9349C124.525 17.4314 124.231 16.7765 123.746 16.517C121.801 15.4852 120.197 13.746 117.811 13.5761C117.339 13.5421 116.888 13.1806 116.425 12.9737C113.094 11.4754 109.769 9.99877 106.033 9.8165C102.935 9.66513 99.8405 9.44889 96.755 9.16468C93.0897 8.82487 89.4459 8.20394 85.7746 8.02477C80.0144 7.74674 74.239 7.77454 68.4727 7.60772C64.513 7.49342 60.5472 7.05785 56.6243 8.02168C56.4341 8.06802 56.2194 8.01241 56.0139 8.00623C52.4867 7.91047 48.9564 7.70349 45.4292 7.7591C42.359 7.80543 39.2949 8.14833 36.2247 8.3584L36.2277 8.36767Z" fill="white"/>
<path d="M61.6969 93.1203C61.7245 93.5033 61.7583 93.9389 61.8104 94.6772C61.2522 94.2911 60.8719 94.013 60.4762 93.7566C59.9303 93.3983 59.4671 93.1573 58.685 93.1017C57.8293 93.043 57.0379 91.7765 56.2497 91.0042C55.9798 90.7416 55.8693 90.2906 55.5749 90.0805C54.2652 89.1537 53.02 87.9706 51.5539 87.4701C49.5479 86.7843 48.5235 85.1594 47.4899 83.6889C46.3888 82.1196 45.8029 80.1549 45.1435 78.3075C44.3123 75.9845 43.5762 73.6212 42.9075 71.2425C42.2113 68.7773 42.4321 66.3214 43.2143 63.8902C43.4934 63.0222 43.5118 62.0614 43.843 61.2181C45.119 57.9713 46.4378 54.7431 47.8181 51.5396C48.4806 50.0073 49.2995 48.54 50.0786 47.0602C50.2534 46.7266 50.5018 46.3683 50.8085 46.1736C54.348 43.934 57.8047 41.5244 61.5098 39.606C63.0557 38.8059 65.1506 38.8553 66.9847 38.9047C69.6071 38.9758 72.2204 39.4052 74.8397 39.6801C74.8888 39.6863 74.9501 39.6678 74.99 39.6863C76.9254 40.681 78.873 41.648 80.7839 42.689C82.0168 43.3594 83.1241 44.317 84.4092 44.8329C86.9795 45.8647 88.4456 48.1137 90.3656 49.8714C93.0463 52.3242 94.129 55.6081 95.1167 58.9104C96.0276 61.9502 95.7577 64.9962 95.3804 68.1842C95.0369 71.0788 94.1229 73.6984 93.307 76.3799C92.85 77.8874 91.9023 79.3146 90.9239 80.5812C89.1388 82.8981 87.4028 85.3447 85.222 87.2415C80.7102 91.171 75.3795 93.2562 69.3004 93.1203C66.7915 93.0647 64.2795 93.111 61.6908 93.111L61.6969 93.1203ZM86.9366 67.1092C86.6513 62.2684 86.3293 58.4409 83.9154 55.2188C83.0413 54.0542 82.0966 52.7351 80.8697 52.0895C78.7258 50.9619 76.6033 49.8591 73.9993 49.4976C71.6805 49.1763 69.3894 48.1384 66.9356 47.8294C64.4267 47.5144 62.0589 47.5978 59.6665 48.4318C56.7834 49.4389 54.8725 51.3017 54.0781 54.2951C53.8665 55.0891 53.7346 55.9355 53.3604 56.646C51.5017 60.1955 50.5693 63.9273 51.06 67.9402C51.1919 69.0214 51.4434 70.1057 51.79 71.1375C52.1182 72.1075 52.9862 73.0034 53.0046 73.9456C53.0414 75.6786 53.4831 76.9854 54.8173 78.15C56.4061 79.5401 57.5808 81.5234 59.3352 82.5799C61.7951 84.0596 64.5893 85.0142 67.3068 86.0089C68.5582 86.4661 70.0703 86.914 71.2787 86.6144C73.5086 86.0553 75.6556 85.0513 77.7412 84.0318C80.0447 82.9043 82.0935 81.4338 83.1057 78.8605C84.0442 76.4695 85.5502 74.3286 85.9152 71.6812C86.1698 69.8369 86.728 68.0328 86.9427 67.1123L86.9366 67.1092Z" fill="white"/>
<path d="M99.4168 32.2259C99.6837 28.3736 100.671 26.5881 103.72 25.4327C104.981 24.9539 107.149 25.8837 108.284 26.8661C109.854 28.2254 109.802 29.6587 109.253 31.4474C108.422 34.169 107.217 36.4704 104.245 37.2242C103.702 37.3601 102.91 37.357 102.509 37.0512C100.825 35.763 98.9567 34.5057 99.4138 32.2259H99.4168Z" fill="white"/>
<path d="M1.36643 89.9103C1.14559 83.806 1.01371 78.749 0.762199 73.6981C0.599639 70.3989 0.142633 67.115 0.0383497 63.8158C-0.0690007 60.4856 0.0751556 57.1462 0.151835 53.8129C0.222379 50.733 0.311327 47.65 0.461617 44.5731C0.710057 39.5439 1.01371 34.5209 1.29588 29.4916C1.45538 26.6218 1.49218 23.7365 1.80503 20.882C2.30191 16.3378 3.67906 12.0253 6.26161 8.24719C7.63876 6.23303 9.3717 4.42585 11.8806 3.71224C12.169 3.62883 12.5769 3.52689 12.6842 3.31064C13.5829 1.47257 15.3097 1.93286 16.8126 1.71353C20.5239 1.16674 24.2106 0.428417 27.9372 0.0546232C29.9769 -0.149264 32.0717 0.280135 34.1451 0.323384C36.9638 0.382079 39.7887 0.335741 42.6074 0.345008C43.2055 0.345008 43.8036 0.419149 44.4048 0.434595C47.7817 0.508736 51.1586 0.57052 54.5386 0.64775C56.1182 0.684821 57.6947 0.796032 59.2743 0.783675C62.9611 0.755872 66.6508 0.551985 70.3345 0.653929C73.874 0.752783 77.4074 1.14511 80.9438 1.41078C81.2505 1.43241 81.5634 1.51891 81.8578 1.47566C87.0689 0.694088 92.2616 1.99155 97.4758 1.58378C101.27 1.28722 105.082 1.15747 108.889 1.08951C110.87 1.05244 112.851 1.34282 114.836 1.42005C118.881 1.58069 122.614 3.0357 126.31 4.43511C129.788 5.75111 132.831 7.55521 135.266 10.8576C138.113 14.7191 137.858 18.7258 137.962 22.9363C138.027 25.488 138.428 28.0274 138.56 30.579C138.637 32.102 138.45 33.6373 138.444 35.1665C138.431 38.163 138.444 41.1626 138.481 44.1592C138.502 46.1023 138.628 48.0485 138.619 49.9916C138.603 53.8747 138.594 57.7578 138.459 61.6379C138.37 64.1556 138.539 66.6053 138.959 69.1045C139.201 70.5533 138.297 72.1628 138.131 73.7259C137.824 76.6267 137.726 79.5491 137.465 82.4591C137.076 86.8489 136.64 91.2324 136.186 95.616C135.846 98.9091 135.536 102.211 135.027 105.48C134.779 107.071 134.254 108.662 133.598 110.135C132.04 113.638 130.405 117.114 128.635 120.512C128.117 121.507 127.003 122.174 126.221 123.045C125.329 124.043 124.596 125.204 123.62 126.1C122.669 126.978 121.565 127.747 120.409 128.321C118.544 129.251 116.606 130.048 114.652 130.774C113.581 131.173 112.416 131.309 111.29 131.559C110.941 131.636 110.551 131.624 110.244 131.781C107.815 133.045 105.202 132.847 102.604 132.825C98.7824 132.795 94.9576 132.782 91.1359 132.81C86.4984 132.844 81.8547 133.134 77.2295 132.924C73.3924 132.751 69.5309 132.748 65.7092 132.035C63.8505 131.689 61.7373 132.449 59.9736 131.917C56.1826 130.774 52.3395 131.528 48.5393 131.046C44.6133 130.549 40.6015 130.79 36.6479 130.465C32.6729 130.141 28.6488 130.058 24.8302 128.556C23.4898 128.028 21.9685 127.969 20.53 127.685C17.2236 127.033 14.4877 125.316 12.1321 122.971C8.41782 119.273 4.74643 115.486 3.28033 110.253C2.74051 108.322 2.81413 106.215 2.6301 104.189C2.17002 99.0759 1.71915 93.9633 1.36029 89.8979L1.36643 89.9103ZM36.2277 8.36767C36.2185 8.3028 36.2093 8.23483 36.2032 8.16996C33.8599 8.52831 31.5258 9.08436 29.1702 9.20175C25.4129 9.38711 21.8765 10.354 18.4167 11.7009C14.8006 13.1096 12.6628 15.8126 12.0647 19.6494C11.7886 21.4165 11.8316 23.2329 11.6966 25.0246C11.442 28.4722 11.1875 31.9228 10.8899 35.3673C10.5955 38.7809 10.1232 42.1852 9.94833 45.6018C9.62935 51.8945 9.46372 58.1934 9.25209 64.4892C9.1018 68.9191 9.20608 73.3738 8.78588 77.7759C8.35034 82.3603 8.9423 86.855 9.63855 91.2942C10.5924 97.3552 11.5586 103.435 13.3467 109.351C14.3926 112.811 16.7267 115.155 19.1314 117.534C19.7326 118.13 20.3245 118.94 21.0637 119.162C23.6616 119.94 26.2963 120.676 28.9678 121.108C31.7681 121.562 34.6297 121.627 37.4607 121.902C39.6476 122.115 41.8283 122.424 44.0152 122.643C47.794 123.02 51.5727 123.394 55.3576 123.712C59.2835 124.043 63.2126 124.33 67.1447 124.571C67.982 124.624 68.8408 124.278 69.6812 124.312C71.227 124.373 72.7637 124.664 74.3095 124.71C78.1404 124.828 81.9713 124.852 85.8022 124.926C87.0382 124.951 88.2712 125.075 89.5042 125.065C91.3292 125.05 93.1511 124.895 94.976 124.905C97.2335 124.917 99.4878 125.047 101.742 125.109C102.923 125.14 104.116 125.041 105.288 125.161C106.401 125.275 107.303 124.636 108.521 124.735C111.891 125.013 115.008 123.759 117.581 121.513C120.507 118.958 122.016 115.477 123.332 111.912C124.007 110.089 124.654 108.254 125.224 106.394C125.672 104.93 126.154 103.441 126.319 101.927C126.911 96.4872 127.402 91.0378 127.88 85.5885C128.08 83.3117 128.23 81.0257 128.252 78.7397C128.27 76.673 128.022 74.6033 128.006 72.5335C127.991 70.3155 128.157 68.1005 128.16 65.8824C128.16 63.5316 127.985 61.1776 128.034 58.8267C128.086 56.3368 128.331 53.8531 128.454 51.3632C128.598 48.5088 128.69 45.6513 128.825 42.7968C128.92 40.7981 129.224 38.7901 129.132 36.8038C128.96 33.0133 128.61 29.2291 128.258 25.451C128.055 23.2947 127.736 21.1631 125.896 19.6247C125.418 19.2231 125.227 18.4879 124.859 17.9349C124.525 17.4314 124.231 16.7765 123.746 16.517C121.801 15.4852 120.197 13.746 117.811 13.5761C117.339 13.5421 116.888 13.1806 116.425 12.9737C113.094 11.4754 109.769 9.99877 106.033 9.8165C102.935 9.66513 99.8405 9.44889 96.755 9.16468C93.0897 8.82487 89.4459 8.20394 85.7746 8.02477C80.0144 7.74674 74.239 7.77454 68.4727 7.60772C64.513 7.49342 60.5472 7.05785 56.6243 8.02168C56.4341 8.06802 56.2194 8.01241 56.0139 8.00623C52.4867 7.91047 48.9564 7.70349 45.4292 7.7591C42.359 7.80543 39.2949 8.14833 36.2247 8.3584L36.2277 8.36767Z" stroke="white" stroke-width="2" mask="url(#path-1-inside-1_395_7496)"/>
<path d="M61.6969 93.1203C61.7245 93.5033 61.7583 93.9389 61.8104 94.6772C61.2522 94.2911 60.8719 94.013 60.4762 93.7566C59.9303 93.3983 59.4671 93.1573 58.685 93.1017C57.8293 93.043 57.0379 91.7765 56.2497 91.0042C55.9798 90.7416 55.8693 90.2906 55.5749 90.0805C54.2652 89.1537 53.02 87.9706 51.5539 87.4701C49.5479 86.7843 48.5235 85.1594 47.4899 83.6889C46.3888 82.1196 45.8029 80.1549 45.1435 78.3075C44.3123 75.9845 43.5762 73.6212 42.9075 71.2425C42.2113 68.7773 42.4321 66.3214 43.2143 63.8902C43.4934 63.0222 43.5118 62.0614 43.843 61.2181C45.119 57.9713 46.4378 54.7431 47.8181 51.5396C48.4806 50.0073 49.2995 48.54 50.0786 47.0602C50.2534 46.7266 50.5018 46.3683 50.8085 46.1736C54.348 43.934 57.8047 41.5244 61.5098 39.606C63.0557 38.8059 65.1506 38.8553 66.9847 38.9047C69.6071 38.9758 72.2204 39.4052 74.8397 39.6801C74.8888 39.6863 74.9501 39.6678 74.99 39.6863C76.9254 40.681 78.873 41.648 80.7839 42.689C82.0168 43.3594 83.1241 44.317 84.4092 44.8329C86.9795 45.8647 88.4456 48.1137 90.3656 49.8714C93.0463 52.3242 94.129 55.6081 95.1167 58.9104C96.0276 61.9502 95.7577 64.9962 95.3804 68.1842C95.0369 71.0788 94.1229 73.6984 93.307 76.3799C92.85 77.8874 91.9023 79.3146 90.9239 80.5812C89.1388 82.8981 87.4028 85.3447 85.222 87.2415C80.7102 91.171 75.3795 93.2562 69.3004 93.1203C66.7915 93.0647 64.2795 93.111 61.6908 93.111L61.6969 93.1203ZM86.9366 67.1092C86.6513 62.2684 86.3293 58.4409 83.9154 55.2188C83.0413 54.0542 82.0966 52.7351 80.8697 52.0895C78.7258 50.9619 76.6033 49.8591 73.9993 49.4976C71.6805 49.1763 69.3894 48.1384 66.9356 47.8294C64.4267 47.5144 62.0589 47.5978 59.6665 48.4318C56.7834 49.4389 54.8725 51.3017 54.0781 54.2951C53.8665 55.0891 53.7346 55.9355 53.3604 56.646C51.5017 60.1955 50.5693 63.9273 51.06 67.9402C51.1919 69.0214 51.4434 70.1057 51.79 71.1375C52.1182 72.1075 52.9862 73.0034 53.0046 73.9456C53.0414 75.6786 53.4831 76.9854 54.8173 78.15C56.4061 79.5401 57.5808 81.5234 59.3352 82.5799C61.7951 84.0596 64.5893 85.0142 67.3068 86.0089C68.5582 86.4661 70.0703 86.914 71.2787 86.6144C73.5086 86.0553 75.6556 85.0513 77.7412 84.0318C80.0447 82.9043 82.0935 81.4338 83.1057 78.8605C84.0442 76.4695 85.5502 74.3286 85.9152 71.6812C86.1698 69.8369 86.728 68.0328 86.9427 67.1123L86.9366 67.1092Z" stroke="white" stroke-width="2" mask="url(#path-1-inside-1_395_7496)"/>
<path d="M99.4168 32.2259C99.6837 28.3736 100.671 26.5881 103.72 25.4327C104.981 24.9539 107.149 25.8837 108.284 26.8661C109.854 28.2254 109.802 29.6587 109.253 31.4474C108.422 34.169 107.217 36.4704 104.245 37.2242C103.702 37.3601 102.91 37.357 102.509 37.0512C100.825 35.763 98.9567 34.5057 99.4138 32.2259H99.4168Z" stroke="white" stroke-width="2" mask="url(#path-1-inside-1_395_7496)"/>
</svg>
