<svg width="139" height="134" viewBox="0 0 139 134" fill="none" xmlns="http://www.w3.org/2000/svg">
<path d="M1.36643 90.5863C1.14559 84.4361 1.01371 79.3411 0.762199 74.2523C0.599639 70.9282 0.142633 67.6197 0.0383497 64.2956C-0.0690007 60.9404 0.0751556 57.5759 0.151835 54.2175C0.222379 51.1144 0.311327 48.0082 0.461617 44.9083C0.710057 39.8412 1.01371 34.7804 1.29588 29.7134C1.45538 26.8219 1.49218 23.9149 1.80503 21.039C2.30191 16.4607 3.67906 12.1157 6.26161 8.3092C7.63876 6.27989 9.3717 4.45912 11.8806 3.74015C12.169 3.65612 12.5769 3.55341 12.6842 3.33554C13.5829 1.48364 15.3097 1.94739 16.8126 1.72641C20.5239 1.17551 24.2106 0.431638 27.9372 0.0550339C29.9769 -0.150386 32.0717 0.282241 34.1451 0.325815C36.9638 0.384951 39.7887 0.338265 42.6074 0.347602C43.2055 0.347602 43.8036 0.422301 44.4048 0.437863C47.7817 0.512561 51.1586 0.57481 54.5386 0.65262C56.1182 0.68997 57.6947 0.802017 59.2743 0.789567C62.9611 0.761555 66.6508 0.556135 70.3345 0.658845C73.874 0.758443 77.4074 1.15372 80.9438 1.42139C81.2505 1.44318 81.5634 1.53033 81.8578 1.48675C87.0689 0.699307 92.2616 2.00653 97.4758 1.59569C101.27 1.29689 105.082 1.16617 108.889 1.0977C110.87 1.06035 112.851 1.35292 114.836 1.43073C118.881 1.59257 122.614 3.05853 126.31 4.46846C129.788 5.79435 132.831 7.61201 135.266 10.9392C138.113 14.8297 137.858 18.8666 137.962 23.1088C138.027 25.6797 138.428 28.2381 138.56 30.809C138.637 32.3434 138.45 33.8903 138.444 35.4309C138.431 38.45 138.444 41.4721 138.481 44.4912C138.502 46.4489 138.628 48.4097 138.619 50.3675C138.603 54.2798 138.594 58.1921 138.459 62.1013C138.37 64.638 138.539 67.1061 138.959 69.6241C139.201 71.0838 138.297 72.7054 138.131 74.2803C137.824 77.2028 137.726 80.1472 137.465 83.0791C137.076 87.5019 136.64 91.9184 136.186 96.3349C135.846 99.6528 135.536 102.98 135.027 106.273C134.779 107.876 134.254 109.479 133.598 110.963C132.04 114.493 130.405 117.994 128.635 121.418C128.117 122.42 127.003 123.092 126.221 123.97C125.329 124.976 124.596 126.146 123.62 127.048C122.669 127.932 121.565 128.707 120.409 129.286C118.544 130.223 116.606 131.026 114.652 131.758C113.581 132.159 112.416 132.296 111.29 132.548C110.941 132.626 110.551 132.613 110.244 132.772C107.815 134.045 105.202 133.846 102.604 133.824C98.7824 133.793 94.9576 133.781 91.1359 133.809C86.4984 133.843 81.8547 134.135 77.2295 133.924C73.3924 133.749 69.5309 133.746 65.7092 133.027C63.8505 132.679 61.7373 133.444 59.9736 132.909C56.1826 131.758 52.3395 132.517 48.5393 132.031C44.6133 131.53 40.6015 131.773 36.6479 131.446C32.6729 131.119 28.6488 131.035 24.8302 129.523C23.4898 128.991 21.9685 128.931 20.53 128.645C17.2236 127.988 14.4877 126.258 12.1321 123.896C8.41782 120.17 4.74643 116.354 3.28033 111.082C2.74051 109.136 2.81413 107.014 2.6301 104.972C2.17002 99.8209 1.71915 94.6698 1.36029 90.5738L1.36643 90.5863ZM36.2277 8.43058C36.2185 8.36522 36.2093 8.29675 36.2032 8.23139C33.8599 8.59243 31.5258 9.15267 29.1702 9.27094C25.4129 9.45769 21.8765 10.4319 18.4167 11.7889C14.8006 13.2082 12.6628 15.9315 12.0647 19.7972C11.7886 21.5775 11.8316 23.4076 11.6966 25.2128C11.442 28.6863 11.1875 32.1629 10.8899 35.6332C10.5955 39.0725 10.1232 42.5024 9.94833 45.9447C9.62935 52.2847 9.46372 58.631 9.25209 64.9741C9.1018 69.4373 9.20608 73.9254 8.78588 78.3607C8.35034 82.9795 8.9423 87.5081 9.63855 91.9807C10.5924 98.0872 11.5586 104.213 13.3467 110.173C14.3926 113.659 16.7267 116.021 19.1314 118.418C19.7326 119.018 20.3245 119.834 21.0637 120.058C23.6616 120.842 26.2963 121.583 28.9678 122.019C31.7681 122.476 34.6297 122.542 37.4607 122.819C39.6476 123.033 41.8283 123.345 44.0152 123.566C47.794 123.945 51.5727 124.322 55.3576 124.642C59.2835 124.976 63.2126 125.265 67.1447 125.508C67.982 125.561 68.8408 125.212 69.6812 125.246C71.227 125.309 72.7637 125.601 74.3095 125.648C78.1404 125.766 81.9713 125.791 85.8022 125.866C87.0382 125.891 88.2712 126.015 89.5042 126.006C91.3292 125.99 93.1511 125.835 94.976 125.844C97.2335 125.856 99.4878 125.987 101.742 126.049C102.923 126.08 104.116 125.981 105.288 126.102C106.401 126.217 107.303 125.573 108.521 125.673C111.891 125.953 115.008 124.689 117.581 122.426C120.507 119.852 122.016 116.345 123.332 112.753C124.007 110.917 124.654 109.068 125.224 107.194C125.672 105.719 126.154 104.219 126.319 102.694C126.911 97.2126 127.402 91.7223 127.88 86.232C128.08 83.9381 128.23 81.6349 128.252 79.3317C128.27 77.2495 128.022 75.1642 128.006 73.0789C127.991 70.8441 128.157 68.6125 128.16 66.3778C128.16 64.0092 127.985 61.6376 128.034 59.269C128.086 56.7604 128.331 54.258 128.454 51.7494C128.598 48.8735 128.69 45.9945 128.825 43.1186C128.92 41.1049 129.224 39.0818 129.132 37.0805C128.96 33.2615 128.61 29.4488 128.258 25.6423C128.055 23.4698 127.736 21.3223 125.896 19.7723C125.418 19.3677 125.227 18.6269 124.859 18.0698C124.525 17.5625 124.231 16.9026 123.746 16.6412C121.801 15.6016 120.197 13.8493 117.811 13.6781C117.339 13.6439 116.888 13.2797 116.425 13.0712C113.094 11.5617 109.769 10.0739 106.033 9.89031C102.935 9.7378 99.8405 9.51993 96.755 9.23359C93.0897 8.89122 89.4459 8.26562 85.7746 8.0851C80.0144 7.80498 74.239 7.833 68.4727 7.66492C64.513 7.54977 60.5472 7.11091 56.6243 8.08199C56.4341 8.12868 56.2194 8.07265 56.0139 8.06643C52.4867 7.96994 48.9564 7.76141 45.4292 7.81743C42.359 7.86412 39.2949 8.2096 36.2247 8.42125L36.2277 8.43058Z" fill="#125F31"/>
<path d="M61.6969 93.8204C61.7245 94.2064 61.7583 94.6452 61.8104 95.3891C61.2522 95 60.8719 94.7199 60.4762 94.4616C59.9303 94.1005 59.4671 93.8578 58.685 93.8017C57.8293 93.7426 57.0379 92.4665 56.2497 91.6884C55.9798 91.4238 55.8693 90.9694 55.5749 90.7578C54.2652 89.8241 53.02 88.632 51.5539 88.1278C49.5479 87.4368 48.5235 85.7997 47.4899 84.3182C46.3888 82.737 45.8029 80.7575 45.1435 78.8963C44.3123 76.5558 43.5762 74.1747 42.9075 71.7782C42.2113 69.2945 42.4321 66.8201 43.2143 64.3706C43.4934 63.496 43.5118 62.528 43.843 61.6783C45.119 58.4072 46.4378 55.1547 47.8181 51.9271C48.4806 50.3833 49.2995 48.9049 50.0786 47.4141C50.2534 47.0779 50.5018 46.7169 50.8085 46.5208C54.348 44.2643 57.8047 41.8366 61.5098 39.9038C63.0557 39.0977 65.1506 39.1475 66.9847 39.1973C69.6071 39.2688 72.2204 39.7015 74.8397 39.9785C74.8888 39.9847 74.9501 39.966 74.99 39.9847C76.9254 40.9869 78.873 41.9611 80.7839 43.01C82.0168 43.6854 83.1241 44.6502 84.4092 45.17C86.9795 46.2096 88.4456 48.4754 90.3656 50.2464C93.0463 52.7177 94.129 56.0262 95.1167 59.3534C96.0276 62.416 95.7577 65.4848 95.3804 68.6969C95.0369 71.6132 94.1229 74.2526 93.307 76.9541C92.85 78.473 91.9023 79.911 90.9239 81.187C89.1388 83.5214 87.4028 85.9864 85.222 87.8975C80.7102 91.8565 75.3795 93.9574 69.3004 93.8204C66.7915 93.7644 64.2795 93.8111 61.6908 93.8111L61.6969 93.8204ZM86.9366 67.6137C86.6513 62.7366 86.3293 58.8803 83.9154 55.634C83.0413 54.4606 82.0966 53.1316 80.8697 52.4811C78.7258 51.3451 76.6033 50.2339 73.9993 49.8698C71.6805 49.5461 69.3894 48.5003 66.9356 48.1891C64.4267 47.8716 62.0589 47.9556 59.6665 48.796C56.7834 49.8106 54.8725 51.6874 54.0781 54.7034C53.8665 55.5033 53.7346 56.3561 53.3604 57.0719C51.5017 60.6481 50.5693 64.4079 51.06 68.451C51.1919 69.5403 51.4434 70.6328 51.79 71.6724C52.1182 72.6497 52.9862 73.5523 53.0046 74.5015C53.0414 76.2476 53.4831 77.5642 54.8173 78.7376C56.4061 80.1382 57.5808 82.1363 59.3352 83.2008C61.7951 84.6917 64.5893 85.6534 67.3068 86.6556C68.5582 87.1162 70.0703 87.5675 71.2787 87.2656C73.5086 86.7023 75.6556 85.6907 77.7412 84.6636C80.0447 83.5276 82.0935 82.0461 83.1057 79.4534C84.0442 77.0444 85.5502 74.8875 85.9152 72.2201C86.1698 70.362 86.728 68.5444 86.9427 67.6169L86.9366 67.6137Z" fill="#125F31"/>
<path d="M99.4168 32.4682C99.6837 28.587 100.671 26.788 103.72 25.6239C104.981 25.1415 107.149 26.0784 108.284 27.0681C109.854 28.4376 109.802 29.8817 109.253 31.6838C108.422 34.4259 107.217 36.7447 104.245 37.5041C103.702 37.641 102.91 37.6379 102.509 37.3298C100.825 36.0319 98.9567 34.7651 99.4138 32.4682H99.4168Z" fill="#125F31"/>
</svg>
