<svg width="147" height="91" viewBox="0 0 147 91" fill="none" xmlns="http://www.w3.org/2000/svg">
<path d="M5.7281 0.000568785C4.97971 -0.0100897 4.23669 0.129146 3.54221 0.410183C2.84773 0.69122 2.21563 1.10845 1.68267 1.63764C1.1497 2.16682 0.726484 2.7974 0.437619 3.49273C0.148755 4.18806 0 4.93427 0 5.688C0 6.44172 0.148755 7.18794 0.437619 7.88327C0.726484 8.5786 1.1497 9.20917 1.68267 9.73836C2.21563 10.2675 2.84773 10.6848 3.54221 10.9658C4.23669 11.2469 4.97971 11.3861 5.7281 11.3754H141.272C142.02 11.3861 142.763 11.2469 143.458 10.9658C144.152 10.6848 144.784 10.2675 145.317 9.73836C145.85 9.20917 146.274 8.5786 146.562 7.88327C146.851 7.18794 147 6.44172 147 5.688C147 4.93427 146.851 4.18806 146.562 3.49273C146.274 2.7974 145.85 2.16682 145.317 1.63764C144.784 1.10845 144.152 0.69122 143.458 0.410183C142.763 0.129146 142.02 -0.0100897 141.272 0.000568785H5.7281ZM5.7281 39.8126C4.97971 39.8019 4.23669 39.9411 3.54221 40.2222C2.84773 40.5032 2.21563 40.9205 1.68267 41.4496C1.1497 41.9788 0.726484 42.6094 0.437619 43.3047C0.148755 44.0001 0 44.7463 0 45.5C0 46.2537 0.148755 46.9999 0.437619 47.6953C0.726484 48.3906 1.1497 49.0212 1.68267 49.5504C2.21563 50.0795 2.84773 50.4968 3.54221 50.7778C4.23669 51.0589 4.97971 51.1981 5.7281 51.1874H141.272C142.02 51.1981 142.763 51.0589 143.458 50.7778C144.152 50.4968 144.784 50.0795 145.317 49.5504C145.85 49.0212 146.274 48.3906 146.562 47.6953C146.851 46.9999 147 46.2537 147 45.5C147 44.7463 146.851 44.0001 146.562 43.3047C146.274 42.6094 145.85 41.9788 145.317 41.4496C144.784 40.9205 144.152 40.5032 143.458 40.2222C142.763 39.9411 142.02 39.8019 141.272 39.8126H5.7281ZM5.7281 79.6246C4.97971 79.6139 4.23669 79.7532 3.54221 80.0342C2.84773 80.3152 2.21563 80.7325 1.68267 81.2616C1.1497 81.7908 0.726484 82.4214 0.437619 83.1167C0.148755 83.8121 0 84.5583 0 85.312C0 86.0657 0.148755 86.8119 0.437619 87.5073C0.726484 88.2026 1.1497 88.8332 1.68267 89.3624C2.21563 89.8915 2.84773 90.3088 3.54221 90.5898C4.23669 90.8708 4.97971 91.0101 5.7281 90.9994H141.272C142.02 91.0101 142.763 90.8708 143.458 90.5898C144.152 90.3088 144.784 89.8915 145.317 89.3624C145.85 88.8332 146.274 88.2026 146.562 87.5073C146.851 86.8119 147 86.0657 147 85.312C147 84.5583 146.851 83.8121 146.562 83.1167C146.274 82.4214 145.85 81.7908 145.317 81.2616C144.784 80.7325 144.152 80.3152 143.458 80.0342C142.763 79.7532 142.02 79.6139 141.272 79.6246H5.7281Z" fill="#125F31"/>
</svg>
