<svg width="148" height="91" viewBox="0 0 148 91" fill="none" xmlns="http://www.w3.org/2000/svg">
<path d="M5.74585 1.50042L5.75645 1.50057H5.76706H142.233H142.244L142.254 1.50042C142.809 1.49257 143.36 1.59507 143.874 1.80197L144.434 0.410183L143.874 1.80197C144.389 2.00886 144.858 2.31603 145.253 2.70564C145.648 3.09525 145.961 3.55954 146.176 4.07154C146.39 4.58352 146.5 5.13299 146.5 5.688C146.5 6.24301 146.39 6.79248 146.176 7.30446C145.961 7.81646 145.648 8.28074 145.253 8.67034C144.858 9.05997 144.389 9.36714 143.874 9.57403L144.434 10.9658L143.874 9.57403C143.36 9.78093 142.809 9.88342 142.254 9.87558L142.244 9.87543H142.233H5.76706H5.75645L5.74585 9.87558C5.19117 9.88342 4.64046 9.78092 4.12572 9.57403C3.61097 9.36714 3.14244 9.05996 2.74737 8.67035L1.69411 9.73836L2.74737 8.67035C2.3523 8.28073 2.03857 7.81645 1.82443 7.30446C1.61028 6.79248 1.5 6.24301 1.5 5.688C1.5 5.13299 1.61028 4.58352 1.82443 4.07153C2.03857 3.55955 2.3523 3.09526 2.74737 2.70565C3.14244 2.31603 3.61097 2.00886 4.12571 1.80197C4.64046 1.59507 5.19117 1.49257 5.74585 1.50042ZM5.74585 41.3124L5.75645 41.3126H5.76706H142.233H142.244L142.254 41.3124C142.809 41.3046 143.36 41.4071 143.874 41.614C144.389 41.8209 144.858 42.128 145.253 42.5177C145.648 42.9073 145.961 43.3715 146.176 43.8835C146.39 44.3955 146.5 44.945 146.5 45.5C146.5 46.055 146.39 46.6045 146.176 47.1165C145.961 47.6285 145.648 48.0927 145.253 48.4823C144.858 48.872 144.389 49.1791 143.874 49.386C143.36 49.5929 142.809 49.6954 142.254 49.6876L142.244 49.6874H142.233H5.76706H5.75645L5.74585 49.6876C5.19117 49.6954 4.64046 49.5929 4.12572 49.386L3.56631 50.7778L4.12571 49.386C3.61097 49.1791 3.14244 48.872 2.74737 48.4824C2.3523 48.0927 2.03857 47.6285 1.82443 47.1165C1.61028 46.6045 1.5 46.055 1.5 45.5C1.5 44.945 1.61028 44.3955 1.82443 43.8835C2.03857 43.3715 2.3523 42.9073 2.74737 42.5177L1.69411 41.4496L2.74738 42.5176C3.14244 42.128 3.61097 41.8209 4.12571 41.614C4.64046 41.4071 5.19117 41.3046 5.74585 41.3124ZM5.74585 81.1244L5.75645 81.1246H5.76706H142.233H142.244L142.254 81.1244C142.809 81.1166 143.36 81.2191 143.874 81.426C144.389 81.6329 144.858 81.94 145.253 82.3297C145.648 82.7193 145.961 83.1835 146.176 83.6955C146.39 84.2075 146.5 84.757 146.5 85.312C146.5 85.867 146.39 86.4165 146.176 86.9285C145.961 87.4405 145.648 87.9047 145.253 88.2943C144.858 88.684 144.389 88.9911 143.874 89.198C143.36 89.4049 142.809 89.5074 142.254 89.4996L142.244 89.4994H142.233H5.76706H5.75645L5.74585 89.4996C5.19117 89.5074 4.64046 89.4049 4.12571 89.198C3.61096 88.9911 3.14244 88.684 2.74737 88.2944C2.3523 87.9047 2.03857 87.4405 1.82443 86.9285L0.440596 87.5073L1.82443 86.9285C1.61028 86.4165 1.5 85.867 1.5 85.312C1.5 84.757 1.61028 84.2075 1.82443 83.6955L0.442605 83.1176L1.82443 83.6955C2.03857 83.1835 2.3523 82.7193 2.74737 82.3297C3.14244 81.94 3.61096 81.6329 4.12571 81.426L3.57046 80.0445L4.12573 81.426C4.64047 81.2191 5.19117 81.1166 5.74585 81.1244Z" fill="white" stroke="white" stroke-width="3"/>
</svg>
