<svg width="134" height="137" viewBox="0 0 134 137" fill="none" xmlns="http://www.w3.org/2000/svg">
<path d="M132.217 126.37L97.6493 91.0287C105.427 81.1046 109.656 68.7623 109.636 56.0455C109.636 25.0928 85.0944 0 54.8181 0C24.5433 0 0 25.0928 0 56.0455C0 86.9981 24.5433 112.091 54.8181 112.091C67.7612 112.091 79.6568 107.505 89.0352 99.8341L123.603 135.175C124.167 135.755 124.839 136.214 125.578 136.527C126.317 136.84 127.109 137.001 127.909 137C129.113 137 130.291 136.635 131.293 135.951C132.294 135.267 133.075 134.294 133.536 133.156C133.997 132.019 134.118 130.767 133.883 129.559C133.648 128.351 133.068 127.241 132.217 126.37ZM54.8181 99.6364C31.2707 99.6364 12.1818 80.1201 12.1818 56.0455C12.1818 31.9708 31.2707 12.4545 54.8181 12.4545C78.367 12.4545 97.4544 31.9708 97.4544 56.0455C97.4544 80.1201 78.367 99.6364 54.8181 99.6364Z" fill="white"/>
<path d="M132.217 126.37L97.6493 91.0287C105.427 81.1046 109.656 68.7623 109.636 56.0455C109.636 25.0928 85.0944 0 54.8181 0C24.5433 0 0 25.0928 0 56.0455C0 86.9981 24.5433 112.091 54.8181 112.091C67.7612 112.091 79.6568 107.505 89.0352 99.8341L123.603 135.175C124.167 135.755 124.839 136.214 125.578 136.527C126.317 136.84 127.109 137.001 127.909 137C129.113 137 130.291 136.635 131.293 135.951C132.294 135.267 133.075 134.294 133.536 133.156C133.997 132.019 134.118 130.767 133.883 129.559C133.648 128.351 133.068 127.241 132.217 126.37ZM54.8181 99.6364C31.2707 99.6364 12.1818 80.1201 12.1818 56.0455C12.1818 31.9708 31.2707 12.4545 54.8181 12.4545C78.367 12.4545 97.4544 31.9708 97.4544 56.0455C97.4544 80.1201 78.367 99.6364 54.8181 99.6364Z" stroke="white"/>
</svg>
