<svg width="133" height="138" viewBox="0 0 133 138" fill="none" xmlns="http://www.w3.org/2000/svg">
<path d="M131.23 127.292L96.9206 91.6932C104.64 81.6966 108.838 69.2642 108.818 56.4545C108.818 25.276 84.4594 0 54.409 0C24.3601 0 0 25.276 0 56.4545C0 87.6331 24.3601 112.909 54.409 112.909C67.2556 112.909 79.0623 108.289 88.3708 100.563L122.68 136.162C123.241 136.745 123.907 137.208 124.641 137.524C125.374 137.839 126.16 138.001 126.954 138C128.15 138 129.319 137.632 130.313 136.943C131.307 136.254 132.082 135.274 132.54 134.128C132.997 132.982 133.117 131.721 132.884 130.504C132.651 129.288 132.075 128.17 131.23 127.292ZM54.409 100.364C31.0373 100.364 12.0909 80.7049 12.0909 56.4545C12.0909 32.2042 31.0373 12.5455 54.409 12.5455C77.7822 12.5455 96.7271 32.2042 96.7271 56.4545C96.7271 80.7049 77.7822 100.364 54.409 100.364Z" fill="#125F31"/>
<path d="M131.23 127.292L96.9206 91.6932C104.64 81.6966 108.838 69.2642 108.818 56.4545C108.818 25.276 84.4594 0 54.409 0C24.3601 0 0 25.276 0 56.4545C0 87.6331 24.3601 112.909 54.409 112.909C67.2556 112.909 79.0623 108.289 88.3708 100.563L122.68 136.162C123.241 136.745 123.907 137.208 124.641 137.524C125.374 137.839 126.16 138.001 126.954 138C128.15 138 129.319 137.632 130.313 136.943C131.307 136.254 132.082 135.274 132.54 134.128C132.997 132.982 133.117 131.721 132.884 130.504C132.651 129.288 132.075 128.17 131.23 127.292ZM54.409 100.364C31.0373 100.364 12.0909 80.7049 12.0909 56.4545C12.0909 32.2042 31.0373 12.5455 54.409 12.5455C77.7822 12.5455 96.7271 32.2042 96.7271 56.4545C96.7271 80.7049 77.7822 100.364 54.409 100.364Z" stroke="white"/>
</svg>
