<svg width="224" height="210" viewBox="0 0 224 210" fill="none" xmlns="http://www.w3.org/2000/svg">
<path fill-rule="evenodd" clip-rule="evenodd" d="M113.115 0C141.334 0.365589 165.455 17.9497 171.836 43.9405C182.432 87.1499 138.404 124.752 93.7159 110.53C49.0275 96.2914 38.2963 41.2183 74.6897 12.9641C85.7599 4.36376 98.7443 0.175626 113.03 0H113.114H113.115ZM113.064 1.95877C101.165 2.10213 90.3979 5.01609 80.4972 11.3082C41.7153 35.9621 48.1646 91.6086 91.7026 107.759C134.629 123.685 179.352 88.1857 170.127 45.7093C164.524 19.9712 140.86 2.29389 113.064 1.95877Z" fill="white"/>
<path fill-rule="evenodd" clip-rule="evenodd" d="M104.145 46.7437C100.268 48.5752 87.9449 53.7508 79.4975 49.8978C74.3015 47.5411 69.7473 45.215 66.5474 43.5268C70.0178 42.4122 74.9262 40.8996 80.5127 39.4659C89.5525 37.1093 100.689 44.2921 104.143 46.7437H104.145Z" fill="white"/>
<path fill-rule="evenodd" clip-rule="evenodd" d="M107.005 39.753C104.06 37.348 95.2397 29.4968 95.7312 21.5811C96.0359 16.7084 96.5102 12.3447 96.8988 9.26941C99.0816 11.5956 102.095 14.9235 105.295 18.7783C110.474 25.0381 107.969 36.2011 107.005 39.753Z" fill="white"/>
<path fill-rule="evenodd" clip-rule="evenodd" d="M106.615 50.3437C105.413 52.7326 101.333 60.0426 95.3924 61.2845C91.7182 62.0497 88.4021 62.5909 86.0479 62.9404C87.3335 61.0605 89.2135 58.4171 91.4306 55.5659C95.0362 50.9476 103.788 50.3903 106.615 50.3419V50.3437Z" fill="white"/>
<path fill-rule="evenodd" clip-rule="evenodd" d="M89.6367 31.4883C87.3187 31.4399 80.1074 30.9955 77.1437 27.2034C75.298 24.8629 73.759 22.6963 72.6924 21.1515C74.639 21.4382 77.3647 21.8845 80.3779 22.5045C85.2692 23.5081 88.6387 29.5116 89.6367 31.4865V31.4883Z" fill="white"/>
<path fill-rule="evenodd" clip-rule="evenodd" d="M108.444 18.6019C107.176 17.4226 103.366 13.5696 103.84 9.93884C104.128 7.70946 104.484 5.71844 104.755 4.31702C105.686 5.44783 106.972 7.05714 108.326 8.91913C110.509 11.9299 109.002 17.0105 108.444 18.6019Z" fill="white"/>
<path fill-rule="evenodd" clip-rule="evenodd" d="M127.039 71.9129C130.966 72.7892 132.785 72.7355 136.442 72.8322C144.737 73.0706 146.396 71.653 154.605 75.524C156.771 76.5437 161.251 79.739 163.078 81.9272C165.895 85.5597 166.342 82.7945 164.948 83.0096C164.12 83.1368 166.354 82.1494 166.219 81.3698C165.034 77.4523 159.6 74.6799 155.977 72.9774C152.287 71.2409 149.714 70.4613 147.362 70.1423C151.931 68.5814 155.047 68.0886 159.516 67.8179C161.874 67.8 158.323 67.8645 160.897 67.705L163.333 67.6638C166.079 67.705 167.573 68.042 169.971 68.6728C171.946 69.1925 171.144 68.4255 171.432 67.6925C171.896 65.8914 172.927 65.5563 167.302 65.0796C160.182 64.4775 151.83 65.4147 144.636 68.0581C138.678 70.2391 130.553 70.9093 124.612 68.4882C121.414 67.1979 119.382 64.6334 117.824 59.266C115.759 52.1156 116.283 49.9489 121.616 44.2787C127.625 37.8755 135.751 35.8379 144.722 35.1211C149.427 34.7555 153.343 35.0494 157.236 35.8451C159.859 36.3863 163.874 37.8666 166.575 38.8469C169.278 39.8271 168.725 39.5959 169.249 38.6712C169.672 37.9383 169.693 36.6408 166.259 35.4186C159.712 33.087 151.373 31.743 144.467 32.2842C140.352 32.6032 136.629 33.1928 133.296 34.148C133.617 33.5906 133.955 33.001 134.294 32.3487C137.492 26.3918 141.436 13.6356 140.421 7.26466C140.303 6.4851 139.947 6.07113 139.168 5.81485C138.354 5.60697 137.543 6.06933 137.322 6.83456C137.238 7.18402 137.482 9.15175 137.221 12.0908C136.871 16.0173 135.732 20.8828 134.158 25.3255C130.332 36.044 128.911 34.0369 121.734 40.1049C119.551 41.9687 117.587 44.2142 115.81 46.9221C115.557 44.5654 115.37 34.8971 115.218 25.1176C115.149 20.3398 115.136 5.555 115.136 1.49231C115.136 0.770091 114.184 0.0801327 113.321 0.0657959C112.458 0.0819248 111.498 0.727081 111.443 1.44751C111.157 5.19658 111.477 20.3398 111.408 25.1176C111.256 34.8971 111.069 44.5637 110.833 46.9221C109.056 44.2142 107.092 41.9687 104.892 40.1049C97.7326 34.0369 96.2926 36.044 92.4679 25.3255C90.8927 20.8828 89.8528 16.0083 89.4032 12.0908C89.0566 9.06035 89.3213 7.02452 89.2699 6.66969C89.1042 5.52274 88.268 5.60876 87.4566 5.81665C86.6776 6.07112 86.3233 6.4851 86.2033 7.26646C85.2053 13.6374 89.1328 26.3935 92.3308 32.3505C92.6698 33.0028 93.007 33.5924 93.346 34.1498C89.9937 33.1946 86.2871 32.605 82.1577 32.286C75.2512 31.7448 67.9181 32.4168 61.4896 35.0261C57.3583 36.7017 56.0955 38.3809 56.5183 39.1139C57.0421 40.0368 56.8993 40.1748 60.0516 38.8486C62.6953 37.7375 66.7886 36.2053 69.4133 35.6641C73.3236 34.8684 77.2169 34.7555 81.9063 35.1229C90.8946 35.8397 99.003 37.8773 105.012 44.2805C110.361 49.9507 110.869 52.1156 108.805 59.2678C107.264 64.6352 105.216 67.1997 102.016 68.49C96.0907 70.9111 87.9671 70.2409 81.992 68.0599C74.815 65.4165 67.0286 64.0294 59.3259 65.0814C57.0764 65.3897 53.8232 65.7284 54.5527 67.938C54.8403 68.671 54.6517 69.5885 56.305 68.8287C58.5716 67.7857 61.0668 67.4828 63.6267 67.5312L63.7905 67.5348C64.8819 67.5904 65.0324 67.5868 67.1295 67.8215C71.5808 68.0921 74.6969 68.585 79.2835 70.1459C76.914 70.4649 74.3408 71.2444 70.6685 72.981C67.0457 74.6853 61.6115 77.4559 60.4268 81.3734C60.2916 82.153 60.8497 82.8859 61.6801 83.0132C62.5087 83.1404 61.1944 86.2246 62.8077 82.0956C65.061 77.5562 69.8552 76.5473 72.0227 75.5276C80.232 71.6566 81.9082 73.0742 90.1861 72.8358C93.8431 72.7391 111.694 70.5581 113.382 68.3627C112.138 69.2498 116.304 69.0832 127.046 71.9165L127.039 71.9129Z" fill="white"/>
<path fill-rule="evenodd" clip-rule="evenodd" d="M122.07 46.7437C125.946 48.5752 138.287 53.7508 146.717 49.8978C151.931 47.5411 156.485 45.215 159.668 43.5268C156.214 42.4122 151.289 40.8996 145.719 39.4659C136.679 37.1093 125.541 44.2921 122.072 46.7437H122.07Z" fill="white"/>
<path fill-rule="evenodd" clip-rule="evenodd" d="M119.226 39.753C122.171 37.348 130.973 29.4968 130.483 21.5811C130.179 16.7084 129.704 12.3447 129.316 9.26941C127.133 11.5956 124.12 14.9235 120.92 18.7783C115.739 25.0381 118.246 36.2011 119.228 39.753H119.226Z" fill="white"/>
<path fill-rule="evenodd" clip-rule="evenodd" d="M119.617 50.3437C120.801 52.7326 124.881 60.0426 130.839 61.2845C134.496 62.0497 137.814 62.5909 140.167 62.9404C138.881 61.0605 137.018 58.4171 134.784 55.5659C131.178 50.9476 122.428 50.3903 119.617 50.3419V50.3437Z" fill="white"/>
<path fill-rule="evenodd" clip-rule="evenodd" d="M136.592 31.4883C138.893 31.4399 146.106 30.9955 149.085 27.2034C150.914 24.8629 152.455 22.6963 153.521 21.1515C151.592 21.4382 148.866 21.8845 145.836 22.5045C140.945 23.5081 137.575 29.5116 136.594 31.4865L136.592 31.4883Z" fill="white"/>
<path fill-rule="evenodd" clip-rule="evenodd" d="M117.771 18.6019C119.056 17.4226 122.849 13.5696 122.392 9.93884C122.087 7.70946 121.733 5.71844 121.46 4.31702C120.529 5.44783 119.243 7.05714 117.906 8.91913C115.706 11.9299 117.213 17.0105 117.771 18.6019Z" fill="white"/>
<path fill-rule="evenodd" clip-rule="evenodd" d="M89.4002 53.2415C88.0631 55.0247 83.6118 60.3616 78.6005 60.5354C75.5206 60.6465 72.7435 60.6142 70.7969 60.5838C72.134 59.2307 74.0635 57.367 76.2977 55.3598C79.9547 52.1269 87.1146 52.8921 89.4002 53.2415Z" fill="white"/>
<path fill-rule="evenodd" clip-rule="evenodd" d="M136.814 53.2415C138.152 55.0247 142.603 60.3616 147.614 60.5354C150.696 60.6465 153.471 60.6142 155.435 60.5838C154.081 59.2307 152.168 57.367 149.917 55.3598C146.277 52.1269 139.1 52.8921 136.816 53.2415H136.814Z" fill="white"/>
<path fill-rule="evenodd" clip-rule="evenodd" d="M108.416 62.4106C110.474 69.561 109.967 71.7277 104.639 77.3979C98.6529 83.8011 90.575 85.8387 81.619 86.5555C76.9468 86.9229 73.0688 86.81 69.1736 86.0143C66.5604 85.4731 62.5452 83.7903 59.8462 82.8297C59.4348 82.6828 61.8271 86.7258 62.1814 86.8476C68.7355 89.0985 74.9906 89.9318 81.8705 89.3906C85.9846 89.0716 89.6798 88.4838 93.0188 87.5268C92.6816 88.0842 92.3445 88.6738 92.0074 89.3261C88.8208 95.2831 87.4132 99.1432 86.2799 106.134C86.1542 106.914 89.9465 107.935 90.7217 108.19C91.5312 108.396 89.735 108.46 89.9369 107.695C90.0207 107.346 89.3046 108.03 89.0665 107.86C87.9617 107.077 91.295 97.7615 91.6797 96.6737C95.4911 85.9552 97.3863 87.6344 104.521 81.5681C106.714 79.7043 108.67 77.4588 110.441 74.751C110.677 77.1076 110.862 86.776 111.015 96.5537C111.081 101.331 110.811 108.423 110.835 112.344C110.839 113.066 111.725 112.614 112.584 112.631C113.443 112.614 114.717 113.043 114.693 112.322C114.55 108.111 114.742 101.333 114.811 96.5554C114.963 86.7759 115.148 77.1094 115.401 74.7528C117.172 77.4606 119.129 79.7061 121.304 81.5699C128.454 87.638 129.871 85.6308 133.683 96.3494C135.252 100.794 136.098 103.039 136.536 106.959C136.654 108.027 139.635 106.831 139.498 106.054C138.54 100.625 137.004 95.2831 133.818 89.3279C133.481 88.6738 133.144 88.0842 132.822 87.5286C136.143 88.4838 139.854 89.0734 143.953 89.3924C150.833 89.9336 157 88.9283 163.015 87.0609C163.267 86.982 165.447 85.0914 165.027 84.3584C164.505 83.4355 166.792 82.1667 165.367 82.7652C162.343 84.034 161.44 85.0645 156.653 86.0161C152.77 86.7885 148.896 86.9247 144.208 86.5573C135.269 85.8405 127.174 83.8029 121.188 77.3997C115.875 71.7295 115.352 69.5628 117.411 62.4123C118.961 57.045 106.887 57.045 108.422 62.4123L108.416 62.4106Z" fill="white"/>
<path fill-rule="evenodd" clip-rule="evenodd" d="M69.286 67.7336C69.286 67.7336 84.3847 100.006 113.502 99.3481C142.619 98.6904 158.72 67.2946 158.72 67.2946L161.263 67.0759C161.263 67.0759 145.934 101.977 113.041 101.904C80.1486 101.832 66.4365 67.5867 66.4365 67.5867" fill="white"/>
<path fill-rule="evenodd" clip-rule="evenodd" d="M89.8086 72.8074C89.8086 72.8074 98.0884 84.189 112.319 84.189C126.549 84.189 135.175 72.0332 135.175 72.0332L138.108 72.2662C138.108 72.2662 130.518 87.2087 112.665 87.1317C94.8123 87.0546 85.7554 72.7321 85.7554 72.7321" fill="white"/>
<path d="M60.3237 205.458H61.7656C62.3593 205.458 62.9935 204.708 62.9935 204.209V186.105C62.9935 185.605 62.3593 184.898 61.7656 184.898H60.3237V180.529H74.0524V184.898H71.0434V192.721H80.2401V184.898H77.2311V180.529H90.9598V184.898H89.518C88.9243 184.898 88.29 185.605 88.29 186.105V204.209C88.29 204.708 88.9243 205.458 89.518 205.458H90.9598V209.663H77.2311V205.458H80.2401V196.968H71.0434V205.458H74.0524V209.663H60.3237V205.458Z" fill="white"/>
<path d="M106.937 207.29C105.285 209.205 103.209 209.913 100.495 209.913C96.5123 209.913 93.4185 207.79 93.4185 203.505C93.4185 198.762 96.9769 196.639 102.147 196.639C103.928 196.639 105.156 196.764 106.513 197.055V195.265C106.513 193.35 105.455 192.475 102.995 192.475C100.535 192.475 99.2226 193.391 98.2049 194.224H94.9414V188.982C97.1466 188.107 100.237 187.4 104.688 187.4C111.001 187.4 114.054 189.44 114.054 194.474V204.421C114.054 204.879 114.603 205.462 115.072 205.462H116.089V209.001C115.031 209.625 113.504 210 111.639 210C108.928 210 107.527 209.001 106.933 207.294L106.937 207.29ZM106.513 204.504V200.511C105.709 200.344 104.776 200.261 103.887 200.261C101.852 200.261 100.624 201.094 100.624 202.967C100.624 204.841 101.767 205.673 103.419 205.673C104.647 205.673 105.624 205.257 106.513 204.508V204.504Z" fill="white"/>
<path d="M119.055 193.266C118.845 192.683 118.292 192.225 117.783 192.225H117.064V187.774H128.846V192.225H126.346L130.118 202.631H130.203L133.212 194.557C133.721 193.183 133.721 192.225 132.153 192.225H131.604V187.774H141.73V192.225H141.136C140.502 192.225 139.823 192.767 139.525 193.516L132.574 209.663H125.921L119.055 193.266Z" fill="white"/>
<path d="M143.168 198.842C143.168 191.809 147.704 187.396 154.78 187.396C161.856 187.396 165.33 190.81 165.33 198.342C165.33 199.216 165.245 199.966 165.245 200.215H150.794C151.089 203.879 152.66 205.5 155.754 205.5C158.294 205.5 159.356 204.625 160.374 203.376H164.486V207.911C162.579 209.035 159.909 209.993 155.038 209.993C146.903 209.993 143.172 205.704 143.172 198.838L143.168 198.842ZM158.084 196.389C157.874 193.016 156.897 191.729 154.78 191.729C152.663 191.729 151.262 193.061 150.882 196.389H158.088H158.084Z" fill="white"/>
<path d="M0.00368762 148.762C0.00368762 139.065 5.59768 133.656 14.7502 133.656C16.9111 133.656 18.6479 133.864 19.5808 134.031H25.2596V143.603H20.0049L19.201 139.356C18.3971 139.065 17.1249 138.815 15.5983 138.815C11.4867 138.815 8.56246 141.521 8.56246 148.429C8.56246 155.337 10.5537 158.584 14.835 158.584C16.3174 158.584 17.1249 158.46 17.9694 158.21V153.092H15.4287V148.846H27.8004V153.13H26.9522C26.3585 153.13 25.7648 153.88 25.7648 154.379V163.161H21.6532C21.6532 163.161 21.2734 162.286 20.4658 162.286C18.9392 163.036 16.9074 163.535 14.3224 163.535C5.04086 163.535 0 158.335 0 148.762H0.00368762Z" fill="white"/>
<path d="M30.2156 152.338C30.2156 145.306 34.7513 140.892 41.8277 140.892C48.904 140.892 52.3777 144.306 52.3777 151.839C52.3777 152.713 52.2929 153.462 52.2929 153.712H37.8414C38.1364 157.376 39.7073 158.996 42.7975 158.996C45.3382 158.996 46.4002 158.122 47.418 156.873H51.5296V161.408C49.6231 162.532 46.9533 163.489 42.0784 163.489C33.9437 163.489 30.2119 159.201 30.2119 152.335L30.2156 152.338ZM45.1317 149.885C44.9215 146.513 43.9443 145.226 41.8277 145.226C39.711 145.226 38.3097 146.558 37.9299 149.885H45.1354H45.1317Z" fill="white"/>
<path d="M55.0073 152.338C55.0073 145.306 60.2621 140.892 67.1283 140.892C73.9945 140.892 79.1644 145.302 79.1644 152.338C79.1644 159.374 73.9539 163.493 67.1283 163.493C60.3026 163.493 55.0073 159.329 55.0073 152.338ZM71.5312 152.383C71.5312 147.845 69.6653 145.725 67.1246 145.725C64.5839 145.725 62.6737 147.849 62.6737 152.383C62.6737 156.918 64.5396 158.958 67.1246 158.958C69.7095 158.958 71.5312 156.876 71.5312 152.383Z" fill="white"/>
<path d="M80.3445 165.533C80.3445 163.035 82.4206 161.661 84.327 160.957C83.2245 160.374 82.4206 159.25 82.4206 157.793C82.4206 155.919 83.5637 154.545 85.0904 153.591C83.0991 152.425 81.9965 150.552 81.9965 148.099C81.9965 143.648 85.6841 140.9 91.5731 140.9C92.801 140.9 93.9884 141.025 95.0467 141.274H102.886V145.726H101.784C101.404 145.726 100.936 146.059 100.851 146.392C101.021 146.892 101.105 147.516 101.105 148.099C101.105 152.509 97.4621 155.09 91.5694 155.09C90.0427 155.09 88.6894 154.923 87.502 154.59C87.4578 154.84 87.4172 155.298 87.4172 155.506C87.4172 156.422 87.8818 156.88 89.0692 156.88H95.9354C100.726 156.88 102.927 158.587 102.927 162.456C102.927 167.24 99.4533 170.571 90.5516 170.571C83.0512 170.571 80.3408 168.573 80.3408 165.537L80.3445 165.533ZM96.1935 164.201C96.1935 163.243 95.5999 162.744 93.734 162.744H86.6576C86.5322 163.16 86.5322 163.535 86.5322 163.951C86.5322 165.658 87.5057 166.449 90.7286 166.449C94.1175 166.449 96.1935 165.616 96.1935 164.201ZM94.4567 148.095C94.4567 145.764 93.3136 144.765 91.6173 144.765C89.921 144.765 88.7373 145.764 88.7373 148.095C88.7373 150.427 89.8805 151.509 91.6173 151.509C93.3541 151.509 94.4567 150.427 94.4567 148.095Z" fill="white"/>
<path d="M106.194 158.959H107.507C107.971 158.959 108.565 158.376 108.565 157.918V146.806C108.565 146.389 107.971 145.723 107.507 145.723H106.065V141.272H114.583C115.346 141.272 115.855 141.896 116.025 144.353C117.467 142.521 119.119 141.022 121.999 141.022C122.423 141.022 122.803 141.105 123.356 141.272V146.764H122.338C119.244 146.764 117.297 147.264 116.066 147.763V158.959H118.861V163.164H106.19V158.959H106.194Z" fill="white"/>
<path d="M138.398 160.786C136.746 162.702 134.67 163.409 131.956 163.409C127.973 163.409 124.879 161.286 124.879 157.001C124.879 152.258 128.438 150.135 133.608 150.135C135.389 150.135 136.617 150.26 137.974 150.551V148.761C137.974 146.846 136.916 145.972 134.456 145.972C131.996 145.972 130.684 146.888 129.666 147.72H126.402V142.478C128.607 141.604 131.698 140.896 136.149 140.896C142.462 140.896 145.515 142.936 145.515 147.97V157.917C145.515 158.375 146.064 158.958 146.533 158.958H147.55V162.497C146.492 163.121 144.965 163.496 143.1 163.496C140.389 163.496 138.988 162.497 138.394 160.79L138.398 160.786ZM137.978 158V154.007C137.174 153.841 136.241 153.757 135.352 153.757C133.316 153.757 132.089 154.59 132.089 156.463C132.089 158.337 133.232 159.17 134.884 159.17C136.112 159.17 137.089 158.753 137.978 158.004V158Z" fill="white"/>
<path d="M150.772 158.959H152.044C152.509 158.959 153.062 158.376 153.062 157.918V145.722H150.647V141.271H153.062V139.897C153.062 135.404 155.857 133.531 160.647 133.531C162.554 133.531 163.612 133.822 164.545 134.155V138.148H163.402C161.58 138.148 160.607 138.398 160.607 140.189V141.271H172.175C172.894 141.271 173.318 141.979 173.318 143.478V157.918C173.318 158.376 173.911 158.959 174.376 158.959H175.733V163.164H164.206V158.959H165.732V145.726H160.603V158.959H162.13V163.164H150.772V158.959ZM165.688 136.4C165.688 134.36 167.34 132.861 169.501 132.861C171.662 132.861 173.229 134.36 173.229 136.4C173.229 138.44 171.618 139.939 169.501 139.939C167.384 139.939 165.688 138.44 165.688 136.4Z" fill="white"/>
<path d="M178.188 162.285V156.876H182.3C182.894 158.292 184.671 159.083 186.537 159.083C188.403 159.083 189.756 158.375 189.756 157.084C189.756 155.794 188.908 155.294 185.644 154.878C180.814 154.253 178.314 152.588 178.314 148.011C178.314 143.435 181.957 140.937 187.89 140.937C191.663 140.937 194.078 141.353 196.025 141.978V147.179H191.998C191.279 146.055 190.047 145.347 187.971 145.347C185.895 145.347 184.877 146.013 184.877 147.137C184.877 148.178 185.597 148.761 188.904 149.219C194.369 149.927 196.829 151.301 196.829 156.043C196.829 160.786 193.82 163.451 186.788 163.451C182.551 163.451 180.091 162.868 178.185 162.285H178.188Z" fill="white"/>
<path d="M199.334 158.959H200.607C201.071 158.959 201.665 158.376 201.665 157.918V139.481C201.665 139.023 201.071 138.399 200.607 138.399H199.209V134.031H208.022C208.786 134.031 209.21 134.613 209.21 135.613V151.343L213.66 147.267C214.509 146.476 214.295 145.601 213.365 145.601H212.562V141.271H223.834V145.723H222.817C222.308 145.723 221.629 146.014 221.249 146.389L216.968 150.303L222.053 157.835C222.518 158.543 222.986 158.959 223.536 158.959H224V163.164H214.593V159.417L211.374 154.591L209.213 156.464V158.962H211.249V163.168H199.342V158.962L199.334 158.959Z" fill="white"/>
</svg>
