<svg width="560" height="134" viewBox="0 0 560 134" fill="none" xmlns="http://www.w3.org/2000/svg">
<path fill-rule="evenodd" clip-rule="evenodd" d="M67.2094 0C98.6444 0.431283 125.515 21.1751 132.623 51.8364C144.427 102.81 95.381 147.169 45.5986 130.391C-4.18386 113.594 -16.1383 48.625 24.4036 15.2936C36.7357 5.14791 51.2002 0.207185 67.1139 0H67.2073H67.2094ZM67.1521 2.31074C53.897 2.47988 41.9023 5.91745 30.873 13.3402C-12.3296 42.4243 -5.14505 108.07 43.3558 127.123C91.1755 145.911 140.996 104.032 130.72 53.923C124.478 23.5599 98.116 2.70609 67.1521 2.31074Z" fill="white"/>
<path fill-rule="evenodd" clip-rule="evenodd" d="M57.2163 55.1438C52.8984 57.3045 39.1702 63.4101 29.7598 58.8647C23.9715 56.0846 18.8982 53.3405 15.3335 51.349C19.1995 50.034 24.6674 48.2497 30.8908 46.5584C40.961 43.7783 53.3673 52.2517 57.2142 55.1438H57.2163Z" fill="white"/>
<path fill-rule="evenodd" clip-rule="evenodd" d="M60.4018 46.8972C57.1214 44.06 47.2952 34.798 47.8427 25.4599C48.1822 19.7115 48.7105 14.5636 49.1434 10.9358C51.575 13.6799 54.9317 17.6059 58.4964 22.1534C64.2656 29.538 61.4754 42.7069 60.4018 46.8972Z" fill="white"/>
<path fill-rule="evenodd" clip-rule="evenodd" d="M59.9662 59.3903C58.6273 62.2084 54.0824 70.832 47.4644 72.2971C43.3714 73.1998 39.6773 73.8383 37.0547 74.2505C38.4869 72.0328 40.5812 68.9145 43.051 65.5509C47.0676 60.1028 56.8174 59.4453 59.9662 59.3882V59.3903Z" fill="white"/>
<path fill-rule="evenodd" clip-rule="evenodd" d="M41.0532 37.1524C38.4709 37.0953 30.4377 36.5707 27.1361 32.0953C25.08 29.3331 23.3656 26.776 22.1774 24.9529C24.3459 25.2913 27.3822 25.8179 30.739 26.5497C36.1878 27.7341 39.9413 34.8195 41.0532 37.1502V37.1524Z" fill="white"/>
<path fill-rule="evenodd" clip-rule="evenodd" d="M62.0042 21.9443C60.5911 20.5532 56.3474 16.0078 56.8758 11.7246C57.1962 9.09458 57.5929 6.74578 57.8942 5.09253C58.9318 6.42655 60.3641 8.32503 61.8727 10.5216C64.3043 14.0734 62.6259 20.0669 62.0042 21.9443Z" fill="white"/>
<path fill-rule="evenodd" clip-rule="evenodd" d="M82.7206 84.8374C87.0959 85.8713 89.1222 85.8078 93.1961 85.922C102.437 86.2032 104.285 84.5309 113.43 89.0974C115.842 90.3004 120.833 94.0699 122.868 96.6512C126.006 100.937 126.505 97.6745 124.951 97.9281C124.028 98.0783 126.517 96.9134 126.367 95.9937C125.047 91.3722 118.993 88.1017 114.958 86.0932C110.848 84.0446 107.981 83.125 105.361 82.7487C110.451 80.9073 113.922 80.3259 118.9 80.0067C121.527 79.9855 117.572 80.0616 120.438 79.8735L123.152 79.8248C126.212 79.8735 127.875 80.2709 130.547 81.0151C132.747 81.6282 131.854 80.7234 132.174 79.8587C132.692 77.734 133.84 77.3386 127.574 76.7763C119.643 76.0659 110.338 77.1716 102.324 80.29C95.6872 82.8628 86.6354 83.6535 80.0174 80.7973C76.4549 79.2752 74.1909 76.2498 72.4552 69.918C70.1552 61.4826 70.7387 58.9267 76.6798 52.2376C83.3742 44.6838 92.4259 42.28 102.42 41.4343C107.661 41.0031 112.023 41.3498 116.36 42.2885C119.282 42.9269 123.755 44.6732 126.764 45.8296C129.774 46.9861 129.159 46.7133 129.743 45.6224C130.214 44.7578 130.237 43.2271 126.411 41.7853C119.119 39.0348 109.829 37.4492 102.135 38.0877C97.5523 38.464 93.4041 39.1595 89.6909 40.2864C90.0495 39.6289 90.425 38.9333 90.8027 38.1638C94.3653 31.1364 98.7596 16.088 97.6286 8.5723C97.4971 7.65265 97.1003 7.16429 96.2325 6.86197C95.3264 6.61673 94.4225 7.16217 94.1764 8.06491C94.0831 8.47716 94.3547 10.7985 94.064 14.2657C93.6735 18.8977 92.4047 24.6376 90.6521 29.8785C86.3893 42.5231 84.8064 40.1553 76.8113 47.3137C74.3797 49.5124 72.1921 52.1614 70.2124 55.3559C69.9302 52.5758 69.7223 41.1701 69.5526 29.6333C69.4762 23.997 69.4613 6.55542 69.4613 1.76268C69.4613 0.910687 68.4004 0.096747 67.4392 0.079834C66.478 0.0988612 65.4086 0.859948 65.3471 1.70983C65.0288 6.13259 65.3853 23.997 65.3089 29.6333C65.1391 41.1701 64.9312 52.5737 64.6681 55.3559C62.6884 52.1614 60.5008 49.5124 58.0501 47.3137C50.0741 40.1553 48.47 42.5231 44.2094 29.8785C42.4546 24.6376 41.2961 18.8871 40.7954 14.2657C40.4092 10.6907 40.7041 8.289 40.6468 7.87041C40.4622 6.51736 39.5308 6.61884 38.6269 6.86408C37.759 7.16429 37.3644 7.65265 37.2307 8.57441C36.1189 16.0901 40.4941 31.1385 44.0566 38.1659C44.4343 38.9354 44.8099 39.631 45.1876 40.2885C41.4531 39.1617 37.3241 38.4661 32.7239 38.0898C25.0302 37.4513 16.8611 38.2441 9.69993 41.3223C5.09768 43.299 3.6909 45.2799 4.16195 46.1446C4.74545 47.2334 4.58631 47.3962 8.09795 45.8317C11.043 44.521 15.6029 42.7134 18.5267 42.0749C22.8829 41.1363 27.2199 41.0031 32.4438 41.4365C42.4568 42.2821 51.4894 44.6859 58.1838 52.2397C64.1419 58.9288 64.7084 61.4826 62.4084 69.9201C60.6918 76.252 58.4108 79.2773 54.8461 80.7995C48.2451 83.6556 39.1955 82.865 32.5393 80.2921C24.5443 77.1737 15.8702 75.5374 7.28953 76.7784C4.78364 77.142 1.15956 77.5416 1.97222 80.1483C2.29261 81.013 2.08255 82.0954 3.9243 81.199C6.44928 79.9686 9.22888 79.6113 12.0806 79.6684L12.2631 79.6726C13.4789 79.7382 13.6465 79.7339 15.9827 80.0109C20.9414 80.3301 24.4127 80.9115 29.5221 82.7529C26.8825 83.1292 24.0159 84.0489 19.925 86.0975C15.8893 88.108 9.83573 91.3765 8.51595 95.9979C8.3653 96.9176 8.98699 97.7823 9.91211 97.9324C10.8351 98.0825 9.37105 101.721 11.1682 96.8499C13.6784 91.4949 19.019 90.3046 21.4337 89.1017C30.5788 84.5351 32.446 86.2074 41.6674 85.9262C45.7414 85.8121 65.6272 83.2392 67.5071 80.6494C66.1216 81.6959 70.762 81.4992 82.7291 84.8417L82.7206 84.8374Z" fill="white"/>
<path fill-rule="evenodd" clip-rule="evenodd" d="M77.1833 55.1438C81.5012 57.3045 95.2486 63.4101 104.64 58.8647C110.447 56.0846 115.521 53.3405 119.066 51.349C115.219 50.034 109.732 48.2497 103.528 46.5584C93.4577 43.7783 81.0493 52.2517 77.1854 55.1438H77.1833Z" fill="white"/>
<path fill-rule="evenodd" clip-rule="evenodd" d="M74.0158 46.8972C77.2962 44.06 87.1011 34.798 86.5558 25.4599C86.2163 19.7115 85.688 14.5636 85.2552 10.9358C82.8235 13.6799 79.4668 17.6059 75.9021 22.1534C70.1307 29.538 72.9231 42.7069 74.0179 46.8972H74.0158Z" fill="white"/>
<path fill-rule="evenodd" clip-rule="evenodd" d="M74.4508 59.3903C75.7706 62.2084 80.3155 70.832 86.9526 72.2971C91.0265 73.1998 94.7228 73.8383 97.3432 74.2505C95.911 72.0328 93.8359 68.9145 91.3469 65.5509C87.3303 60.1028 77.5826 59.4453 74.4508 59.3882V59.3903Z" fill="white"/>
<path fill-rule="evenodd" clip-rule="evenodd" d="M93.362 37.1524C95.9252 37.0953 103.961 36.5707 107.279 32.0953C109.316 29.3331 111.033 26.776 112.221 24.9529C110.071 25.2913 107.035 25.8179 103.659 26.5497C98.2104 27.7341 94.4569 34.8195 93.3641 37.1502L93.362 37.1524Z" fill="white"/>
<path fill-rule="evenodd" clip-rule="evenodd" d="M72.3951 21.9443C73.8273 20.5532 78.0519 16.0078 77.5427 11.7246C77.2032 9.09458 76.8085 6.74578 76.5051 5.09253C75.4675 6.42655 74.0353 8.32503 72.5457 10.5216C70.095 14.0734 71.7734 20.0669 72.3951 21.9443Z" fill="white"/>
<path fill-rule="evenodd" clip-rule="evenodd" d="M40.7905 62.8106C39.3009 64.9151 34.3422 71.2137 28.7597 71.4188C25.3287 71.5499 22.235 71.5119 20.0665 71.4759C21.5561 69.8791 23.7055 67.6794 26.1944 65.3106C30.2683 61.4951 38.2443 62.3982 40.7905 62.8106Z" fill="white"/>
<path fill-rule="evenodd" clip-rule="evenodd" d="M93.6096 62.8111C95.0991 64.9156 100.058 71.2141 105.64 71.4193C109.074 71.5504 112.165 71.5124 114.353 71.4764C112.844 69.8796 110.714 67.6799 108.206 65.3111C104.151 61.4956 96.1558 62.3987 93.6117 62.8111H93.6096Z" fill="white"/>
<path fill-rule="evenodd" clip-rule="evenodd" d="M61.9738 73.6265C64.2654 82.0619 63.701 84.6179 57.7663 91.307C51.0973 98.8608 42.0986 101.265 32.1218 102.11C26.9169 102.544 22.5969 102.41 18.2577 101.472C15.3466 100.833 10.8738 98.8481 7.86713 97.7149C7.40882 97.5416 10.0738 102.311 10.4685 102.455C17.7697 105.11 24.7378 106.093 32.4019 105.455C36.985 105.078 41.1014 104.385 44.821 103.256C44.4454 103.914 44.0698 104.609 43.6943 105.379C40.1444 112.406 38.5764 116.96 37.3139 125.207C37.1739 126.127 41.3984 127.332 42.262 127.632C43.1638 127.875 41.1629 127.951 41.3878 127.048C41.4812 126.636 40.6834 127.444 40.4182 127.243C39.1875 126.319 42.9007 115.33 43.3293 114.047C47.5751 101.402 49.6863 103.383 57.6347 96.2266C60.0769 94.0279 62.256 91.3789 64.2294 88.1844C64.4925 90.9645 64.6983 102.37 64.868 113.905C64.9423 119.541 64.641 127.907 64.6686 132.533C64.6728 133.385 65.6595 132.852 66.6164 132.871C67.5734 132.852 68.9929 133.357 68.9653 132.507C68.8061 127.539 69.0204 119.543 69.0968 113.907C69.2666 102.37 69.4724 90.9666 69.7546 88.1865C71.7279 91.381 73.907 94.03 76.3302 96.2287C84.2955 103.387 85.8742 101.019 90.1199 113.664C91.8683 118.907 92.8104 121.556 93.2984 126.18C93.43 127.44 96.7507 126.029 96.5979 125.112C95.5306 118.708 93.8204 112.406 90.2706 105.381C89.895 104.609 89.5195 103.914 89.1609 103.258C92.8614 104.385 96.9947 105.081 101.561 105.457C109.225 106.095 116.095 104.909 122.796 102.706C123.076 102.613 125.506 100.383 125.037 99.5183C124.455 98.4295 127.004 96.9327 125.417 97.6388C122.047 99.1356 121.041 100.351 115.709 101.474C111.383 102.385 107.067 102.546 101.845 102.112C91.8874 101.267 82.8696 98.8629 76.2007 91.3091C70.2829 84.62 69.6994 82.064 71.9931 73.6286C73.7203 67.2968 60.27 67.2968 61.9802 73.6286L61.9738 73.6265Z" fill="white"/>
<path fill-rule="evenodd" clip-rule="evenodd" d="M18.3826 79.9064C18.3826 79.9064 35.2023 117.978 67.6388 117.202C100.075 116.426 118.011 79.3884 118.011 79.3884L120.844 79.1305C120.844 79.1305 103.767 120.303 67.1253 120.217C30.4834 120.132 15.2083 79.733 15.2083 79.733" fill="white"/>
<path fill-rule="evenodd" clip-rule="evenodd" d="M41.2451 85.8902C41.2451 85.8902 50.4687 99.3171 66.3209 99.3171C82.1731 99.3171 91.7829 84.9769 91.7829 84.9769L95.0505 85.2518C95.0505 85.2518 86.595 102.879 66.707 102.788C46.8191 102.698 36.7298 85.8014 36.7298 85.8014" fill="white"/>
<path d="M443.024 76.7799H444.63C445.292 76.7799 445.998 75.8958 445.998 75.3064V53.9493C445.998 53.36 445.292 52.525 444.63 52.525H443.024V47.3719H458.318V52.525H454.966V61.7546H465.211V52.525H461.859V47.3719H477.152V52.525H475.546C474.885 52.525 474.178 53.36 474.178 53.9493V75.3064C474.178 75.8958 474.885 76.7799 475.546 76.7799H477.152V81.7406H461.859V76.7799H465.211V66.7644H454.966V76.7799H458.318V81.7406H443.024V76.7799Z" fill="white"/>
<path d="M494.951 78.9419C493.11 81.2012 490.798 82.0362 487.774 82.0362C483.338 82.0362 479.891 79.5313 479.891 74.4765C479.891 68.8814 483.855 66.3765 489.615 66.3765C491.599 66.3765 492.967 66.5239 494.478 66.8677V64.7557C494.478 62.4964 493.299 61.4649 490.56 61.4649C487.82 61.4649 486.357 62.5455 485.223 63.5278H481.588V57.3433C484.044 56.3119 487.487 55.4769 492.445 55.4769C499.478 55.4769 502.879 57.8836 502.879 63.8225V75.557C502.879 76.0973 503.491 76.7849 504.013 76.7849H505.147V80.9597C503.968 81.6965 502.267 82.1385 500.188 82.1385C497.169 82.1385 495.608 80.9597 494.947 78.946L494.951 78.9419ZM494.478 75.6553V70.9443C493.583 70.7478 492.544 70.6496 491.554 70.6496C489.286 70.6496 487.918 71.6319 487.918 73.8421C487.918 76.0523 489.192 77.0346 491.032 77.0346C492.4 77.0346 493.488 76.5434 494.478 75.6593V75.6553Z" fill="white"/>
<path d="M508.449 62.399C508.215 61.7114 507.599 61.1711 507.032 61.1711H506.231V55.9198H519.355V61.1711H516.57L520.773 73.4459H520.867L524.219 63.9215C524.786 62.3007 524.786 61.1711 523.04 61.1711H522.428V55.9198H533.708V61.1711H533.047C532.34 61.1711 531.585 61.8096 531.252 62.6937L523.508 81.7423H516.098L508.449 62.399Z" fill="white"/>
<path d="M535.312 68.9766C535.312 60.6802 540.364 55.4739 548.247 55.4739C556.13 55.4739 560 59.5014 560 68.3872C560 69.4186 559.905 70.3027 559.905 70.5974H543.807C544.135 74.9196 545.885 76.831 549.332 76.831C552.162 76.831 553.345 75.7996 554.479 74.3261H559.059V79.6756C556.935 81.0017 553.961 82.1314 548.535 82.1314C539.473 82.1314 535.316 77.0725 535.316 68.9725L535.312 68.9766ZM551.928 66.0829C551.694 62.1045 550.605 60.586 548.247 60.586C545.889 60.586 544.328 62.1577 543.905 66.0829H551.932H551.928Z" fill="white"/>
<path d="M173.604 66.1317C173.604 54.6919 179.836 48.3109 190.031 48.3109C192.439 48.3109 194.373 48.5565 195.413 48.753H201.739V60.0455H195.885L194.989 55.0357C194.094 54.6918 192.677 54.3972 190.976 54.3972C186.396 54.3972 183.138 57.5897 183.138 65.7388C183.138 73.8879 185.357 77.7189 190.126 77.7189C191.777 77.7189 192.677 77.5715 193.617 77.2768V71.2397H190.787V66.2299H204.569V71.2847H203.624C202.963 71.2847 202.302 72.1688 202.302 72.7582V83.1175H197.721C197.721 83.1175 197.298 82.0861 196.398 82.0861C194.698 82.9702 192.434 83.5595 189.555 83.5595C179.215 83.5595 173.6 77.4242 173.6 66.1317H173.604Z" fill="white"/>
<path d="M207.261 70.3499C207.261 62.0534 212.314 56.8472 220.197 56.8472C228.08 56.8472 231.95 60.8747 231.95 69.7605C231.95 70.7919 231.855 71.676 231.855 71.9707H215.756C216.085 76.2929 217.835 78.2043 221.277 78.2043C224.108 78.2043 225.291 77.1729 226.425 75.6994H231.005V81.0489C228.881 82.375 225.907 83.5047 220.476 83.5047C211.414 83.5047 207.257 78.4458 207.257 70.3458L207.261 70.3499ZM223.878 67.4562C223.644 63.4778 222.555 61.9593 220.197 61.9593C217.839 61.9593 216.278 63.531 215.855 67.4562H223.882H223.878Z" fill="white"/>
<path d="M234.877 70.3499C234.877 62.0534 240.731 56.8472 248.38 56.8472C256.029 56.8472 261.788 62.0493 261.788 70.3499C261.788 78.6504 255.984 83.5088 248.38 83.5088C240.776 83.5088 234.877 78.5972 234.877 70.3499ZM253.285 70.4031C253.285 65.0495 251.206 62.5487 248.376 62.5487C245.545 62.5487 243.418 65.0536 243.418 70.4031C243.418 75.7526 245.496 78.1592 248.376 78.1592C251.255 78.1592 253.285 75.7035 253.285 70.4031Z" fill="white"/>
<path d="M263.104 85.9148C263.104 82.9679 265.416 81.3471 267.54 80.5162C266.312 79.8286 265.416 78.5024 265.416 76.7834C265.416 74.5732 266.69 72.9524 268.39 71.8268C266.172 70.4516 264.944 68.2414 264.944 65.3476C264.944 60.0964 269.052 56.8547 275.612 56.8547C276.98 56.8547 278.303 57.0021 279.482 57.2968H288.215V62.5481H286.987C286.564 62.5481 286.042 62.941 285.947 63.3339C286.136 63.9233 286.231 64.66 286.231 65.3476C286.231 70.5498 282.172 73.595 275.608 73.595C273.907 73.595 272.4 73.3985 271.077 73.0056C271.028 73.3003 270.983 73.8406 270.983 74.0861C270.983 75.1667 271.5 75.7069 272.823 75.7069H280.472C285.808 75.7069 288.26 77.7207 288.26 82.2843C288.26 87.9285 284.391 91.8578 274.474 91.8578C266.119 91.8578 263.099 89.5002 263.099 85.9189L263.104 85.9148ZM280.759 84.3431C280.759 83.2135 280.098 82.6241 278.019 82.6241H270.136C269.997 83.1152 269.997 83.5573 269.997 84.0484C269.997 86.0622 271.081 86.9954 274.671 86.9954C278.447 86.9954 280.759 86.0131 280.759 84.3431ZM278.824 65.3435C278.824 62.5931 277.551 61.4143 275.661 61.4143C273.772 61.4143 272.453 62.5931 272.453 65.3435C272.453 68.094 273.727 69.371 275.661 69.371C277.596 69.371 278.824 68.094 278.824 65.3435Z" fill="white"/>
<path d="M291.899 78.1599H293.362C293.879 78.1599 294.541 77.4723 294.541 76.932V63.8222C294.541 63.3311 293.879 62.5452 293.362 62.5452H291.755V57.2939H301.245C302.095 57.2939 302.662 58.0307 302.851 60.9285C304.457 58.7674 306.297 56.9993 309.506 56.9993C309.978 56.9993 310.401 57.0975 311.017 57.2939V63.7731H309.884C306.437 63.7731 304.268 64.3625 302.896 64.9519V78.1599H306.01V83.1206H291.895V78.1599H291.899Z" fill="white"/>
<path d="M327.773 80.3151C325.933 82.5744 323.62 83.4094 320.597 83.4094C316.16 83.4094 312.714 80.9045 312.714 75.8497C312.714 70.2546 316.678 67.7497 322.437 67.7497C324.421 67.7497 325.789 67.897 327.301 68.2408V66.1289C327.301 63.8696 326.122 62.8381 323.382 62.8381C320.642 62.8381 319.179 63.9187 318.046 64.901H314.41V58.7165C316.867 57.6851 320.309 56.8501 325.267 56.8501C332.3 56.8501 335.701 59.2568 335.701 65.1957V76.9302C335.701 77.4705 336.313 78.1581 336.835 78.1581H337.969V82.3329C336.79 83.0696 335.089 83.5117 333.011 83.5117C329.991 83.5117 328.43 82.3329 327.769 80.3192L327.773 80.3151ZM327.305 77.0284V72.3174C326.409 72.121 325.37 72.0227 324.38 72.0227C322.112 72.0227 320.744 73.005 320.744 75.2152C320.744 77.4254 322.018 78.4078 323.858 78.4078C325.226 78.4078 326.315 77.9166 327.305 77.0325V77.0284Z" fill="white"/>
<path d="M341.56 78.159H342.977C343.495 78.159 344.111 77.4714 344.111 76.9311V62.5443H341.42V57.2931H344.111V55.6722C344.111 50.3718 347.225 48.1616 352.561 48.1616C354.685 48.1616 355.864 48.5054 356.903 48.8984V53.6094H355.629C353.6 53.6094 352.516 53.9041 352.516 56.016V57.2931H365.402C366.203 57.2931 366.675 58.128 366.675 59.8962V76.9311C366.675 77.4714 367.337 78.159 367.854 78.159H369.366V83.1197H356.525V78.159H358.226V62.5484H352.511V78.159H354.212V83.1197H341.56V78.159ZM358.176 51.5465C358.176 49.1399 360.017 47.3717 362.424 47.3717C364.831 47.3717 366.577 49.1399 366.577 51.5465C366.577 53.9532 364.782 55.7213 362.424 55.7213C360.066 55.7213 358.176 53.9532 358.176 51.5465Z" fill="white"/>
<path d="M372.1 82.0853V75.7043H376.681C377.342 77.3743 379.322 78.3075 381.401 78.3075C383.479 78.3075 384.987 77.4725 384.987 75.9499C384.987 74.4273 384.042 73.838 380.406 73.3468C375.025 72.6101 372.24 70.6454 372.24 65.2468C372.24 59.8482 376.299 56.9012 382.908 56.9012C387.11 56.9012 389.801 57.3924 391.97 58.1291V64.2645H387.484C386.683 62.9384 385.311 62.1034 382.998 62.1034C380.686 62.1034 379.552 62.8893 379.552 64.2154C379.552 65.4433 380.353 66.1309 384.038 66.6712C390.126 67.5061 392.866 69.127 392.866 74.722C392.866 80.3171 389.514 83.4605 381.68 83.4605C376.96 83.4605 374.22 82.7729 372.096 82.0853H372.1Z" fill="white"/>
<path d="M395.657 78.1589H397.074C397.591 78.1589 398.253 77.4713 398.253 76.931V55.181C398.253 54.6408 397.591 53.904 397.074 53.904H395.517V48.751H405.335C406.185 48.751 406.657 49.4386 406.657 50.6174V69.1749L411.616 64.3657C412.56 63.4325 412.322 62.401 411.287 62.401H410.391V57.293H422.949V62.5443H421.815C421.249 62.5443 420.493 62.8881 420.07 63.3301L415.3 67.947L420.965 76.8328C421.483 77.6678 422.004 78.1589 422.617 78.1589H423.134V83.1196H412.655V78.6992L409.069 73.0059L406.662 75.2161V78.163H408.929V83.1237H395.665V78.163L395.657 78.1589Z" fill="white"/>
</svg>
